<svg xmlns="http://www.w3.org/2000/svg" width="44" height="44" viewBox="0 0 44 44">
  <g id="Group_325" data-name="Group 325" transform="translate(-1547 -666)">
    <circle id="Ellipse_97" data-name="Ellipse 97" cx="22" cy="22" r="22" transform="translate(1547 666)" fill="rgba(34,186,236,0.6)"/>
    <path id="attachment" d="M5.381,16.74A4.2,4.2,0,0,1,2.412,9.578L11.1.9a3.11,3.11,0,0,1,4.49.131,3.109,3.109,0,0,1,.132,4.49L7.56,13.673a1.966,1.966,0,0,1-2.78-2.78l5.525-5.525a.477.477,0,1,1,.675.675L5.455,11.568A1.011,1.011,0,1,0,6.885,13l8.157-8.157A2.178,2.178,0,0,0,14.91,1.7a2.177,2.177,0,0,0-3.14-.131L3.087,10.253A3.244,3.244,0,0,0,7.675,14.84l8.683-8.683a.477.477,0,0,1,.675.675L8.349,15.515A4.169,4.169,0,0,1,5.381,16.74Z" transform="translate(1559.813 680)" fill="#fff"/>
  </g>
</svg>
