<svg xmlns="http://www.w3.org/2000/svg" xmlns:xlink="http://www.w3.org/1999/xlink" width="1311.723" height="815.145" viewBox="0 0 1311.723 815.145">
  <defs>
    <linearGradient id="linear-gradient" x1="1.129" y1="0.286" x2="0.19" y2="0.479" gradientUnits="objectBoundingBox">
      <stop offset="0" stop-color="#1f92d1"/>
      <stop offset="1" stop-color="#22baec"/>
    </linearGradient>
  </defs>
  <path id="blue-shape" d="M22612.369,11177.833l-404.117-327.245a129,129,0,0,1-19.07-181.435l174.531-215.526,122.377,203.618c1.1-1.362,67.369-73.625,68.744-74.856,4.74-4.269,35.357,7.729,62.342,19.844l66.17-28.089c.367-9.083.5-18.734.6-28.388.477-46.819.205-93.633,22.572-75.522l52.238,71.9,330.779-140.409a129,129,0,0,1,169.15,68.343l203.182,478.662a129,129,0,0,1-68.342,169.148l-478.674-58.774c-31.791,13.5-49.178,7.014-61.826-10.723l-59.225,110.38a128.988,128.988,0,0,1-181.43,19.071Z" transform="translate(-22160.432 -10391.439)" fill="url(#linear-gradient)"/>
</svg>
