<?xml version="1.0" encoding="utf-8"?>
<!-- Generator: Adobe Illustrator 22.1.0, SVG Export Plug-In . SVG Version: 6.00 Build 0)  -->
<svg version="1.1" id="Layer_1" xmlns="http://www.w3.org/2000/svg" xmlns:xlink="http://www.w3.org/1999/xlink" x="0px" y="0px"
	 viewBox="0 0 852.255188 255.5106964" style="enable-background:new 0 0 852.255188 255.5106964;" xml:space="preserve">
<style type="text/css">
	.st0{fill:#FFFFFF;}
	.st1{fill:#2C81CA;}
	.st2{fill:#F04124;}
</style>
<g>
	<g>
		<polygon class="st0" points="0.0011,1.4998 0.0011,48.0447998 8.0633001,48.0447998 8.0633001,51.3424988 0.0011,51.3424988 
			0.0011,97.8863983 8.0633001,97.8863983 8.0633001,101.1852036 0.0011,101.1852036 0.0011,147.7279968 8.0633001,147.7279968 
			8.0633001,151.0256958 0.0011,151.0256958 0.0011,197.5686035 8.0633001,197.5686035 8.0633001,200.8661957 0,200.8661957 
			0,247.4134064 8.0633001,247.4134064 8.0633001,254.0108948 149.5281982,254.0108948 149.5281982,252.3609924 
			149.5281982,247.4134064 157.5924988,247.4134064 157.5924988,245.7613068 157.5924988,200.8661957 149.5281982,200.8661957 
			149.5281982,197.5686035 157.5924988,197.5686035 157.5924988,195.9187012 157.5924988,151.0256958 149.5281982,151.0256958 
			149.5281982,147.7279968 157.5924988,147.7279968 157.5924988,146.0802002 157.5924988,101.1852036 149.5281982,101.1852036 
			149.5281982,97.8863983 157.5924988,97.8863983 157.5924988,96.2353973 157.5924988,51.3424988 149.5281982,51.3424988 
			149.5281982,48.0447998 157.5924988,48.0447998 157.5924988,46.3937988 157.5924988,1.4998 		"/>
		<g>
			<g>
				<g>
					<rect x="8.2143002" y="96.2362976" class="st1" width="3" height="6.5967002"/>
					<rect x="146.3804016" y="96.2362976" class="st1" width="3" height="6.5967002"/>
				</g>
				<g>
					<path class="st1" d="M157.4447937,97.7362976H0.1523V51.4911995h157.2924957V97.7362976z M3.1522999,94.7362976h151.2924957
						V54.4911995H3.1522999V94.7362976z"/>
					<g>
						<g>
							<g>
								<rect x="81.4227982" y="58.455101" class="st1" width="3.2989116" height="3"/>
								<rect x="88.6307983" y="58.455101" class="st1" width="3.2989118" height="3"/>
								<rect x="95.8383942" y="58.455101" class="st1" width="3.2983119" height="3"/>
								<rect x="103.0463943" y="58.455101" class="st1" width="3.2977998" height="3"/>
								<rect x="110.2543945" y="58.455101" class="st1" width="3.2977998" height="3"/>
								<rect x="117.4628983" y="58.455101" class="st1" width="3.2988124" height="3"/>
								<rect x="124.6688995" y="58.455101" class="st1" width="3.2988999" height="3"/>
								<rect x="131.8784027" y="58.455101" class="st1" width="3.2988" height="3"/>
								<rect x="139.0854034" y="58.455101" class="st1" width="3.2979" height="3"/>
								<rect x="146.293396" y="58.455101" class="st1" width="3.2988999" height="3"/>
							</g>
							<g>
								<rect x="81.4227982" y="65.7856979" class="st1" width="3.2989116" height="3"/>
								<rect x="88.6307983" y="65.7856979" class="st1" width="3.2989118" height="3"/>
								<rect x="95.8383942" y="65.7856979" class="st1" width="3.2983119" height="3"/>
								<rect x="103.0463943" y="65.7856979" class="st1" width="3.2977998" height="3"/>
								<rect x="110.2543945" y="65.7856979" class="st1" width="3.2977998" height="3"/>
								<rect x="117.4628983" y="65.7856979" class="st1" width="3.2988124" height="3"/>
								<rect x="124.6688995" y="65.7856979" class="st1" width="3.2988999" height="3"/>
								<rect x="131.8784027" y="65.7856979" class="st1" width="3.2988" height="3"/>
								<rect x="139.0854034" y="65.7856979" class="st1" width="3.2979" height="3"/>
								<rect x="146.293396" y="65.7856979" class="st1" width="3.2988999" height="3"/>
							</g>
							<g>
								<rect x="81.4227982" y="73.1147995" class="st1" width="3.2989116" height="3"/>
								<rect x="88.6307983" y="73.1147995" class="st1" width="3.2989118" height="3"/>
								<rect x="95.8383942" y="73.1147995" class="st1" width="3.2983119" height="3"/>
								<rect x="103.0463943" y="73.1147995" class="st1" width="3.2977998" height="3"/>
								<rect x="110.2543945" y="73.1147995" class="st1" width="3.2977998" height="3"/>
								<rect x="117.4628983" y="73.1147995" class="st1" width="3.2988124" height="3"/>
								<rect x="124.6688995" y="73.1147995" class="st1" width="3.2988999" height="3"/>
								<rect x="131.8784027" y="73.1147995" class="st1" width="3.2988" height="3"/>
								<rect x="139.0854034" y="73.1147995" class="st1" width="3.2979" height="3"/>
								<rect x="146.293396" y="73.1147995" class="st1" width="3.2988999" height="3"/>
							</g>
							<g>
								<rect x="81.4227982" y="80.4433975" class="st1" width="3.2989116" height="3"/>
								<rect x="88.6307983" y="80.4433975" class="st1" width="3.2989118" height="3"/>
								<rect x="95.8383942" y="80.4433975" class="st1" width="3.2983119" height="3"/>
								<rect x="103.0463943" y="80.4433975" class="st1" width="3.2977998" height="3"/>
								<rect x="110.2543945" y="80.4433975" class="st1" width="3.2977998" height="3"/>
								<rect x="117.4628983" y="80.4433975" class="st1" width="3.2988124" height="3"/>
								<rect x="124.6688995" y="80.4433975" class="st1" width="3.2988999" height="3"/>
								<rect x="131.8784027" y="80.4433975" class="st1" width="3.2988" height="3"/>
								<rect x="139.0854034" y="80.4433975" class="st1" width="3.2979" height="3"/>
								<rect x="146.293396" y="80.4433975" class="st1" width="3.2988999" height="3"/>
							</g>
							<g>
								<rect x="81.4227982" y="87.7724991" class="st1" width="3.2989116" height="3"/>
								<rect x="88.6307983" y="87.7724991" class="st1" width="3.2989118" height="3"/>
								<rect x="95.8383942" y="87.7724991" class="st1" width="3.2983119" height="3"/>
								<rect x="103.0463943" y="87.7724991" class="st1" width="3.2977998" height="3"/>
								<rect x="110.2543945" y="87.7724991" class="st1" width="3.2977998" height="3"/>
								<rect x="117.4628983" y="87.7724991" class="st1" width="3.2988124" height="3"/>
								<rect x="124.6688995" y="87.7724991" class="st1" width="3.2988999" height="3"/>
								<rect x="131.8784027" y="87.7724991" class="st1" width="3.2988" height="3"/>
								<rect x="139.0854034" y="87.7724991" class="st1" width="3.2979" height="3"/>
								<rect x="146.293396" y="87.7724991" class="st1" width="3.2988999" height="3"/>
							</g>
						</g>
						<g>
							<g>
								<g>
									<rect x="22.2474995" y="87.2593002" class="st1" width="3.2983999" height="3"/>
									<rect x="29.0292988" y="87.2593002" class="st1" width="3.2972999" height="3"/>
									<rect x="35.8085976" y="87.2593002" class="st1" width="3.2977998" height="3"/>
								</g>
								<g>
									<rect x="60.5819969" y="87.7724991" class="st1" width="3.2988" height="3"/>
									<rect x="67.1797104" y="87.7724991" class="st1" width="3.2977889" height="3"/>
								</g>
							</g>
							<path class="st1" d="M71.9775009,69.1509018H20.7474995V58.455101h51.2300034V69.1509018z M23.7474995,66.1509018h45.2300034
								V61.455101H23.7474995V66.1509018z"/>
							<path class="st1" d="M71.9775009,83.5537033H20.7474995V72.8599014h51.2300034V83.5537033z M23.7474995,80.5537033
								h45.2300034v-4.6938019H23.7474995V80.5537033z"/>
						</g>
						<g>
							<rect x="8.1542997" y="66.1660004" class="st1" width="3" height="23.8617992"/>
							<rect x="8.0033998" y="59.2022018" class="st1" width="3.2988" height="3"/>
						</g>
					</g>
				</g>
			</g>
			<g>
				<g>
					<rect x="8.2143002" y="46.3950005" class="st1" width="3" height="6.5962"/>
					<rect x="146.3813019" y="46.3950005" class="st1" width="3" height="6.5962"/>
				</g>
				<g>
					<path class="st1" d="M157.4432983,47.8950005H0.1523V1.6499h157.2910004V47.8950005z M3.1522999,44.8950005h151.2910004V4.6499
						H3.1522999V44.8950005z"/>
					<g>
						<g>
							<g>
								<rect x="81.4227982" y="8.6138" class="st1" width="3.2989116" height="3"/>
								<rect x="88.6307983" y="8.6138" class="st1" width="3.2989118" height="3"/>
								<rect x="95.8383942" y="8.6138" class="st1" width="3.2983119" height="3"/>
								<rect x="103.0463943" y="8.6138" class="st1" width="3.2977998" height="3"/>
								<rect x="110.2557983" y="8.6138" class="st1" width="3.2974" height="3"/>
								<rect x="117.4618988" y="8.6138" class="st1" width="3.2988124" height="3"/>
								<rect x="124.669899" y="8.6138" class="st1" width="3.2988126" height="3"/>
								<rect x="131.8768921" y="8.6138" class="st1" width="3.2988999" height="3"/>
								<rect x="139.0863953" y="8.6138" class="st1" width="3.2979" height="3"/>
								<rect x="146.2924957" y="8.6138" class="st1" width="3.2988" height="3"/>
							</g>
							<g>
								<rect x="81.4227982" y="15.9439001" class="st1" width="3.2989116" height="3"/>
								<rect x="88.6307983" y="15.9439001" class="st1" width="3.2989118" height="3"/>
								<rect x="95.8383942" y="15.9439001" class="st1" width="3.2983119" height="3"/>
								<rect x="103.0463943" y="15.9439001" class="st1" width="3.2977998" height="3"/>
								<rect x="110.2557983" y="15.9439001" class="st1" width="3.2974" height="3"/>
								<rect x="117.4618988" y="15.9439001" class="st1" width="3.2988124" height="3"/>
								<rect x="124.669899" y="15.9439001" class="st1" width="3.2988126" height="3"/>
								<rect x="131.8768921" y="15.9439001" class="st1" width="3.2988999" height="3"/>
								<rect x="139.0863953" y="15.9439001" class="st1" width="3.2979" height="3"/>
								<rect x="146.2924957" y="15.9439001" class="st1" width="3.2988" height="3"/>
							</g>
							<g>
								<rect x="81.4227982" y="23.2724991" class="st1" width="3.2989116" height="3"/>
								<rect x="88.6307983" y="23.2724991" class="st1" width="3.2989118" height="3"/>
								<rect x="95.8383942" y="23.2724991" class="st1" width="3.2983119" height="3"/>
								<rect x="103.0463943" y="23.2724991" class="st1" width="3.2977998" height="3"/>
								<rect x="110.2557983" y="23.2724991" class="st1" width="3.2974" height="3"/>
								<rect x="117.4618988" y="23.2724991" class="st1" width="3.2988124" height="3"/>
								<rect x="124.669899" y="23.2724991" class="st1" width="3.2988126" height="3"/>
								<rect x="131.8768921" y="23.2724991" class="st1" width="3.2988999" height="3"/>
								<rect x="139.0863953" y="23.2724991" class="st1" width="3.2979" height="3"/>
								<rect x="146.2924957" y="23.2724991" class="st1" width="3.2988" height="3"/>
							</g>
							<g>
								<rect x="81.4227982" y="30.6016006" class="st1" width="3.2989116" height="3"/>
								<rect x="88.6307983" y="30.6016006" class="st1" width="3.2989118" height="3"/>
								<rect x="95.8383942" y="30.6016006" class="st1" width="3.2983119" height="3"/>
								<rect x="103.0463943" y="30.6016006" class="st1" width="3.2977998" height="3"/>
								<rect x="110.2557983" y="30.6016006" class="st1" width="3.2974" height="3"/>
								<rect x="117.4618988" y="30.6016006" class="st1" width="3.2988124" height="3"/>
								<rect x="124.669899" y="30.6016006" class="st1" width="3.2988126" height="3"/>
								<rect x="131.8768921" y="30.6016006" class="st1" width="3.2988999" height="3"/>
								<rect x="139.0863953" y="30.6016006" class="st1" width="3.2979" height="3"/>
								<rect x="146.2924957" y="30.6016006" class="st1" width="3.2988" height="3"/>
							</g>
							<g>
								<rect x="81.4227982" y="37.9306984" class="st1" width="3.2989116" height="3"/>
								<rect x="88.6307983" y="37.9306984" class="st1" width="3.2989118" height="3"/>
								<rect x="95.8383942" y="37.9306984" class="st1" width="3.2983119" height="3"/>
								<rect x="103.0463943" y="37.9306984" class="st1" width="3.2977998" height="3"/>
								<rect x="110.2557983" y="37.9306984" class="st1" width="3.2974" height="3"/>
								<rect x="117.4618988" y="37.9306984" class="st1" width="3.2988124" height="3"/>
								<rect x="124.669899" y="37.9306984" class="st1" width="3.2988126" height="3"/>
								<rect x="131.8768921" y="37.9306984" class="st1" width="3.2988999" height="3"/>
								<rect x="139.0863953" y="37.9306984" class="st1" width="3.2979" height="3"/>
								<rect x="146.2924957" y="37.9306984" class="st1" width="3.2988" height="3"/>
							</g>
						</g>
						<g>
							<g>
								<g>
									<rect x="22.2474995" y="37.4174995" class="st1" width="3.2983999" height="3"/>
									<rect x="29.0292988" y="37.4174995" class="st1" width="3.2972999" height="3"/>
									<rect x="35.8085976" y="37.4174995" class="st1" width="3.2977998" height="3"/>
								</g>
								<g>
									<rect x="60.5819969" y="37.9306984" class="st1" width="3.2988" height="3"/>
									<rect x="67.1797104" y="37.9306984" class="st1" width="3.2977889" height="3"/>
								</g>
							</g>
							<path class="st1" d="M71.9775009,19.3106003H20.7474995V8.6138h51.2300034V19.3106003z M23.7474995,16.3106003h45.2300034
								V11.6138H23.7474995V16.3106003z"/>
							<path class="st1" d="M71.9775009,33.7118988H20.7474995V23.0170994h51.2300034V33.7118988z M23.7474995,30.7119007
								h45.2300034v-4.6948013H23.7474995V30.7119007z"/>
						</g>
						<g>
							<rect x="8.1542997" y="16.3232002" class="st1" width="3" height="23.8619003"/>
							<rect x="8.0033998" y="9.3593998" class="st1" width="3.2988" height="3"/>
						</g>
					</g>
				</g>
			</g>
			<g>
				<g>
					<rect x="8.2143002" y="146.0800934" class="st1" width="3" height="6.5956998"/>
					<rect x="146.3804016" y="146.0800934" class="st1" width="3" height="6.5956998"/>
				</g>
				<g>
					<path class="st1" d="M157.4447937,147.5800934H0.1523v-46.2470932h157.2924957V147.5800934z M3.1522999,144.5800934
						h151.2924957v-40.2470932H3.1522999V144.5800934z"/>
					<g>
						<g>
							<g>
								<rect x="81.4227982" y="108.2968979" class="st1" width="3.2989116" height="3"/>
								<rect x="88.6307983" y="108.2968979" class="st1" width="3.2989118" height="3"/>
								<rect x="95.8383942" y="108.2968979" class="st1" width="3.2983119" height="3"/>
								<rect x="103.0463943" y="108.2968979" class="st1" width="3.2977998" height="3"/>
								<rect x="110.2543945" y="108.2968979" class="st1" width="3.2977998" height="3"/>
								<rect x="117.4628983" y="108.2968979" class="st1" width="3.2988124" height="3"/>
								<rect x="124.6688995" y="108.2968979" class="st1" width="3.2988999" height="3"/>
								<rect x="131.8784027" y="108.2968979" class="st1" width="3.2988" height="3"/>
								<rect x="139.0854034" y="108.2968979" class="st1" width="3.2979" height="3"/>
								<rect x="146.293396" y="108.2968979" class="st1" width="3.2988999" height="3"/>
							</g>
							<g>
								<rect x="81.4227982" y="115.6274033" class="st1" width="3.2989116" height="3"/>
								<rect x="88.6307983" y="115.6274033" class="st1" width="3.2989118" height="3"/>
								<rect x="95.8383942" y="115.6274033" class="st1" width="3.2983119" height="3"/>
								<rect x="103.0463943" y="115.6274033" class="st1" width="3.2977998" height="3"/>
								<rect x="110.2543945" y="115.6274033" class="st1" width="3.2977998" height="3"/>
								<rect x="117.4628983" y="115.6274033" class="st1" width="3.2988124" height="3"/>
								<rect x="124.6688995" y="115.6274033" class="st1" width="3.2988999" height="3"/>
								<rect x="131.8784027" y="115.6274033" class="st1" width="3.2988" height="3"/>
								<rect x="139.0854034" y="115.6274033" class="st1" width="3.2979" height="3"/>
								<rect x="146.293396" y="115.6274033" class="st1" width="3.2988999" height="3"/>
							</g>
							<g>
								<rect x="81.4227982" y="122.9574966" class="st1" width="3.2989116" height="3"/>
								<rect x="88.6307983" y="122.9574966" class="st1" width="3.2989118" height="3"/>
								<rect x="95.8383942" y="122.9574966" class="st1" width="3.2983119" height="3"/>
								<rect x="103.0463943" y="122.9574966" class="st1" width="3.2977998" height="3"/>
								<rect x="110.2543945" y="122.9574966" class="st1" width="3.2977998" height="3"/>
								<rect x="117.4628983" y="122.9574966" class="st1" width="3.2988124" height="3"/>
								<rect x="124.6688995" y="122.9574966" class="st1" width="3.2988999" height="3"/>
								<rect x="131.8784027" y="122.9574966" class="st1" width="3.2988" height="3"/>
								<rect x="139.0854034" y="122.9574966" class="st1" width="3.2979" height="3"/>
								<rect x="146.293396" y="122.9574966" class="st1" width="3.2988999" height="3"/>
							</g>
							<g>
								<rect x="81.4227982" y="130.2837067" class="st1" width="3.2989116" height="3"/>
								<rect x="88.6307983" y="130.2837067" class="st1" width="3.2989118" height="3"/>
								<rect x="95.8383942" y="130.2837067" class="st1" width="3.2983119" height="3"/>
								<rect x="103.0463943" y="130.2837067" class="st1" width="3.2977998" height="3"/>
								<rect x="110.2543945" y="130.2837067" class="st1" width="3.2977998" height="3"/>
								<rect x="117.4628983" y="130.2837067" class="st1" width="3.2988124" height="3"/>
								<rect x="124.6688995" y="130.2837067" class="st1" width="3.2988999" height="3"/>
								<rect x="131.8784027" y="130.2837067" class="st1" width="3.2988" height="3"/>
								<rect x="139.0854034" y="130.2837067" class="st1" width="3.2979" height="3"/>
								<rect x="146.293396" y="130.2837067" class="st1" width="3.2988999" height="3"/>
							</g>
							<g>
								<rect x="81.4227982" y="137.6161957" class="st1" width="3.2989116" height="3"/>
								<rect x="88.6307983" y="137.6161957" class="st1" width="3.2989118" height="3"/>
								<rect x="95.8383942" y="137.6161957" class="st1" width="3.2983119" height="3"/>
								<rect x="103.0463943" y="137.6161957" class="st1" width="3.2977998" height="3"/>
								<rect x="110.2543945" y="137.6161957" class="st1" width="3.2977998" height="3"/>
								<rect x="117.4628983" y="137.6161957" class="st1" width="3.2988124" height="3"/>
								<rect x="124.6688995" y="137.6161957" class="st1" width="3.2988999" height="3"/>
								<rect x="131.8784027" y="137.6161957" class="st1" width="3.2988" height="3"/>
								<rect x="139.0854034" y="137.6161957" class="st1" width="3.2979" height="3"/>
								<rect x="146.293396" y="137.6161957" class="st1" width="3.2988999" height="3"/>
							</g>
						</g>
						<g>
							<g>
								<g>
									<rect x="22.2474995" y="137.1020966" class="st1" width="3.2983999" height="3"/>
									<rect x="29.0292988" y="137.1020966" class="st1" width="3.2972999" height="3"/>
									<rect x="35.8085976" y="137.1020966" class="st1" width="3.2977998" height="3"/>
								</g>
								<g>
									<rect x="60.5819969" y="137.6161957" class="st1" width="3.2988" height="3"/>
									<rect x="67.1797104" y="137.6161957" class="st1" width="3.2977889" height="3"/>
								</g>
							</g>
							<path class="st1" d="M71.9775009,118.9936981H20.7474995v-10.6968002h51.2300034V118.9936981z M23.7474995,115.9936981
								h45.2300034v-4.6968002H23.7474995V115.9936981z"/>
							<path class="st1" d="M71.9775009,133.3930969H20.7474995v-10.6923981h51.2300034V133.3930969z M23.7474995,130.3930969
								h45.2300034v-4.6923981H23.7474995V130.3930969z"/>
						</g>
						<g>
							<rect x="8.1542997" y="116.0064011" class="st1" width="3" height="23.8617992"/>
							<rect x="8.0033998" y="109.044899" class="st1" width="3.2988" height="3"/>
						</g>
					</g>
				</g>
			</g>
			<g>
				<g>
					<rect x="8.2143002" y="195.9228973" class="st1" width="3" height="6.5956998"/>
					<rect x="146.3804016" y="195.9228973" class="st1" width="3" height="6.5956998"/>
				</g>
				<g>
					<path class="st1" d="M157.4447937,197.4228973H0.1523v-46.2471008h157.2924957V197.4228973z M3.1522999,194.4228973
						h151.2924957v-40.2471008H3.1522999V194.4228973z"/>
					<g>
						<g>
							<g>
								<rect x="81.4227982" y="158.1396942" class="st1" width="3.2989116" height="3"/>
								<rect x="88.6307983" y="158.1396942" class="st1" width="3.2989118" height="3"/>
								<rect x="95.8383942" y="158.1396942" class="st1" width="3.2983119" height="3"/>
								<rect x="103.0463943" y="158.1396942" class="st1" width="3.2977998" height="3"/>
								<rect x="110.2543945" y="158.1396942" class="st1" width="3.2977998" height="3"/>
								<rect x="117.4628983" y="158.1396942" class="st1" width="3.2988124" height="3"/>
								<rect x="124.6688995" y="158.1396942" class="st1" width="3.2988999" height="3"/>
								<rect x="131.8784027" y="158.1396942" class="st1" width="3.2988" height="3"/>
								<rect x="139.0854034" y="158.1396942" class="st1" width="3.2979" height="3"/>
								<rect x="146.293396" y="158.1396942" class="st1" width="3.2988999" height="3"/>
							</g>
							<g>
								<rect x="81.4227982" y="165.469696" class="st1" width="3.2989116" height="3"/>
								<rect x="88.6307983" y="165.469696" class="st1" width="3.2989118" height="3"/>
								<rect x="95.8383942" y="165.469696" class="st1" width="3.2983119" height="3"/>
								<rect x="103.0463943" y="165.469696" class="st1" width="3.2977998" height="3"/>
								<rect x="110.2543945" y="165.469696" class="st1" width="3.2977998" height="3"/>
								<rect x="117.4628983" y="165.469696" class="st1" width="3.2988124" height="3"/>
								<rect x="124.6688995" y="165.469696" class="st1" width="3.2988999" height="3"/>
								<rect x="131.8784027" y="165.469696" class="st1" width="3.2988" height="3"/>
								<rect x="139.0854034" y="165.469696" class="st1" width="3.2979" height="3"/>
								<rect x="146.293396" y="165.469696" class="st1" width="3.2988999" height="3"/>
							</g>
							<g>
								<rect x="81.4227982" y="172.800293" class="st1" width="3.2989116" height="3"/>
								<rect x="88.6307983" y="172.800293" class="st1" width="3.2989118" height="3"/>
								<rect x="95.8383942" y="172.800293" class="st1" width="3.2983119" height="3"/>
								<rect x="103.0463943" y="172.800293" class="st1" width="3.2977998" height="3"/>
								<rect x="110.2543945" y="172.800293" class="st1" width="3.2977998" height="3"/>
								<rect x="117.4628983" y="172.800293" class="st1" width="3.2988124" height="3"/>
								<rect x="124.6688995" y="172.800293" class="st1" width="3.2988999" height="3"/>
								<rect x="131.8784027" y="172.800293" class="st1" width="3.2988" height="3"/>
								<rect x="139.0854034" y="172.800293" class="st1" width="3.2979" height="3"/>
								<rect x="146.293396" y="172.800293" class="st1" width="3.2988999" height="3"/>
							</g>
							<g>
								<rect x="81.4227982" y="180.1264954" class="st1" width="3.2989116" height="3"/>
								<rect x="88.6307983" y="180.1264954" class="st1" width="3.2989118" height="3"/>
								<rect x="95.8383942" y="180.1264954" class="st1" width="3.2983119" height="3"/>
								<rect x="103.0463943" y="180.1264954" class="st1" width="3.2977998" height="3"/>
								<rect x="110.2543945" y="180.1264954" class="st1" width="3.2977998" height="3"/>
								<rect x="117.4628983" y="180.1264954" class="st1" width="3.2988124" height="3"/>
								<rect x="124.6688995" y="180.1264954" class="st1" width="3.2988999" height="3"/>
								<rect x="131.8784027" y="180.1264954" class="st1" width="3.2988" height="3"/>
								<rect x="139.0854034" y="180.1264954" class="st1" width="3.2979" height="3"/>
								<rect x="146.293396" y="180.1264954" class="st1" width="3.2988999" height="3"/>
							</g>
							<g>
								<rect x="81.4227982" y="187.4589996" class="st1" width="3.2989116" height="3"/>
								<rect x="88.6307983" y="187.4589996" class="st1" width="3.2989118" height="3"/>
								<rect x="95.8383942" y="187.4589996" class="st1" width="3.2983119" height="3"/>
								<rect x="103.0463943" y="187.4589996" class="st1" width="3.2977998" height="3"/>
								<rect x="110.2543945" y="187.4589996" class="st1" width="3.2977998" height="3"/>
								<rect x="117.4628983" y="187.4589996" class="st1" width="3.2988124" height="3"/>
								<rect x="124.6688995" y="187.4589996" class="st1" width="3.2988999" height="3"/>
								<rect x="131.8784027" y="187.4589996" class="st1" width="3.2988" height="3"/>
								<rect x="139.0854034" y="187.4589996" class="st1" width="3.2979" height="3"/>
								<rect x="146.293396" y="187.4589996" class="st1" width="3.2988999" height="3"/>
							</g>
						</g>
						<g>
							<g>
								<g>
									<rect x="22.2474995" y="186.9447937" class="st1" width="3.2983999" height="3"/>
									<rect x="29.0292988" y="186.9447937" class="st1" width="3.2972999" height="3"/>
									<rect x="35.8085976" y="186.9447937" class="st1" width="3.2977998" height="3"/>
								</g>
								<g>
									<rect x="60.5819969" y="187.4589996" class="st1" width="3.2988" height="3"/>
									<rect x="67.1797104" y="187.4589996" class="st1" width="3.2977889" height="3"/>
								</g>
							</g>
							<path class="st1" d="M71.9775009,168.8363953H20.7474995v-10.696701h51.2300034V168.8363953z M23.7474995,165.8363953
								h45.2300034v-4.696701H23.7474995V165.8363953z"/>
							<path class="st1" d="M71.9775009,183.2357941H20.7474995v-10.6927948h51.2300034V183.2357941z M23.7474995,180.2357941
								h45.2300034v-4.6927948H23.7474995V180.2357941z"/>
						</g>
						<g>
							<rect x="8.1542997" y="165.8491058" class="st1" width="3" height="23.8617992"/>
							<rect x="8.0033998" y="158.887207" class="st1" width="3.2988" height="3"/>
						</g>
					</g>
				</g>
			</g>
			<g>
				<g>
					<rect x="8.2143002" y="245.7655945" class="st1" width="3" height="6.5977001"/>
					<rect x="146.3804016" y="245.7655945" class="st1" width="3" height="6.5977001"/>
				</g>
				<g>
					<path class="st1" d="M157.4447937,247.2655945H0.1523v-46.246994h157.2924957V247.2655945z M3.1522999,244.2655945h151.2924957
						v-40.246994H3.1522999V244.2655945z"/>
					<g>
						<g>
							<g>
								<rect x="81.4227982" y="207.9824066" class="st1" width="3.2989116" height="3"/>
								<rect x="88.6307983" y="207.9824066" class="st1" width="3.2989118" height="3"/>
								<rect x="95.8383942" y="207.9824066" class="st1" width="3.2983119" height="3"/>
								<rect x="103.0463943" y="207.9824066" class="st1" width="3.2977998" height="3"/>
								<rect x="110.2543945" y="207.9824066" class="st1" width="3.2977998" height="3"/>
								<rect x="117.4628983" y="207.9824066" class="st1" width="3.2988124" height="3"/>
								<rect x="124.6688995" y="207.9824066" class="st1" width="3.2988999" height="3"/>
								<rect x="131.8784027" y="207.9824066" class="st1" width="3.2988" height="3"/>
								<rect x="139.0854034" y="207.9824066" class="st1" width="3.2979" height="3"/>
								<rect x="146.293396" y="207.9824066" class="st1" width="3.2988999" height="3"/>
							</g>
							<g>
								<rect x="81.4227982" y="215.3125" class="st1" width="3.2989116" height="3"/>
								<rect x="88.6307983" y="215.3125" class="st1" width="3.2989118" height="3"/>
								<rect x="95.8383942" y="215.3125" class="st1" width="3.2983119" height="3"/>
								<rect x="103.0463943" y="215.3125" class="st1" width="3.2977998" height="3"/>
								<rect x="110.2543945" y="215.3125" class="st1" width="3.2977998" height="3"/>
								<rect x="117.4628983" y="215.3125" class="st1" width="3.2988124" height="3"/>
								<rect x="124.6688995" y="215.3125" class="st1" width="3.2988999" height="3"/>
								<rect x="131.8784027" y="215.3125" class="st1" width="3.2988" height="3"/>
								<rect x="139.0854034" y="215.3125" class="st1" width="3.2979" height="3"/>
								<rect x="146.293396" y="215.3125" class="st1" width="3.2988999" height="3"/>
							</g>
							<g>
								<rect x="81.4227982" y="222.6430969" class="st1" width="3.2989116" height="3"/>
								<rect x="88.6307983" y="222.6430969" class="st1" width="3.2989118" height="3"/>
								<rect x="95.8383942" y="222.6430969" class="st1" width="3.2983119" height="3"/>
								<rect x="103.0463943" y="222.6430969" class="st1" width="3.2977998" height="3"/>
								<rect x="110.2543945" y="222.6430969" class="st1" width="3.2977998" height="3"/>
								<rect x="117.4628983" y="222.6430969" class="st1" width="3.2988124" height="3"/>
								<rect x="124.6688995" y="222.6430969" class="st1" width="3.2988999" height="3"/>
								<rect x="131.8784027" y="222.6430969" class="st1" width="3.2988" height="3"/>
								<rect x="139.0854034" y="222.6430969" class="st1" width="3.2979" height="3"/>
								<rect x="146.293396" y="222.6430969" class="st1" width="3.2988999" height="3"/>
							</g>
							<g>
								<rect x="81.4227982" y="229.9712067" class="st1" width="3.2989116" height="3"/>
								<rect x="88.6307983" y="229.9712067" class="st1" width="3.2989118" height="3"/>
								<rect x="95.8383942" y="229.9712067" class="st1" width="3.2983119" height="3"/>
								<rect x="103.0463943" y="229.9712067" class="st1" width="3.2977998" height="3"/>
								<rect x="110.2543945" y="229.9712067" class="st1" width="3.2977998" height="3"/>
								<rect x="117.4628983" y="229.9712067" class="st1" width="3.2988124" height="3"/>
								<rect x="124.6688995" y="229.9712067" class="st1" width="3.2988999" height="3"/>
								<rect x="131.8784027" y="229.9712067" class="st1" width="3.2988" height="3"/>
								<rect x="139.0854034" y="229.9712067" class="st1" width="3.2979" height="3"/>
								<rect x="146.293396" y="229.9712067" class="st1" width="3.2988999" height="3"/>
							</g>
							<g>
								<rect x="81.4227982" y="237.3018036" class="st1" width="3.2989116" height="3"/>
								<rect x="88.6307983" y="237.3018036" class="st1" width="3.2989118" height="3"/>
								<rect x="95.8383942" y="237.3018036" class="st1" width="3.2983119" height="3"/>
								<rect x="103.0463943" y="237.3018036" class="st1" width="3.2977998" height="3"/>
								<rect x="110.2543945" y="237.3018036" class="st1" width="3.2977998" height="3"/>
								<rect x="117.4628983" y="237.3018036" class="st1" width="3.2988124" height="3"/>
								<rect x="124.6688995" y="237.3018036" class="st1" width="3.2988999" height="3"/>
								<rect x="131.8784027" y="237.3018036" class="st1" width="3.2988" height="3"/>
								<rect x="139.0854034" y="237.3018036" class="st1" width="3.2979" height="3"/>
								<rect x="146.293396" y="237.3018036" class="st1" width="3.2988999" height="3"/>
							</g>
						</g>
						<g>
							<g>
								<g>
									<rect x="22.2474995" y="236.7895966" class="st1" width="3.2983999" height="3"/>
									<rect x="29.0292988" y="236.7895966" class="st1" width="3.2972999" height="3"/>
									<rect x="35.8085976" y="236.7895966" class="st1" width="3.2977998" height="3"/>
								</g>
								<g>
									<rect x="60.5819969" y="237.3018036" class="st1" width="3.2988" height="3"/>
									<rect x="67.1797104" y="237.3018036" class="st1" width="3.2977889" height="3"/>
								</g>
							</g>
							<path class="st1" d="M71.9775009,218.6791992H20.7474995v-10.6967926h51.2300034V218.6791992z M23.7474995,215.6791992
								h45.2300034v-4.6967926H23.7474995V215.6791992z"/>
							<path class="st1" d="M71.9775009,233.0805969H20.7474995v-10.6949005h51.2300034V233.0805969z M23.7474995,230.0805969
								h45.2300034v-4.6949005H23.7474995V230.0805969z"/>
						</g>
						<g>
							<rect x="8.1542997" y="215.6918945" class="st1" width="3" height="23.8617992"/>
							<rect x="8.0033998" y="208.7299957" class="st1" width="3.2988" height="3"/>
						</g>
					</g>
				</g>
			</g>
			<rect x="8.2143002" y="250.8632965" class="st1" width="141.1660919" height="3"/>
		</g>
	</g>
	<g>
		<polygon class="st0" points="694.6638794,1.4998 694.6638794,48.0447998 702.7261353,48.0447998 702.7261353,51.3424988 
			694.6638794,51.3424988 694.6638794,97.8863983 702.7261353,97.8863983 702.7261353,101.1852036 694.6638794,101.1852036 
			694.6638794,147.7279968 702.7261353,147.7279968 702.7261353,151.0256958 694.6638794,151.0256958 694.6638794,197.5686035 
			702.7261353,197.5686035 702.7261353,200.8661957 694.6627808,200.8661957 694.6627808,247.4134064 702.7261353,247.4134064 
			702.7261353,254.0108948 844.190918,254.0108948 844.190918,252.3609924 844.190918,247.4134064 852.255188,247.4134064 
			852.255188,245.7613068 852.255188,200.8661957 844.190918,200.8661957 844.190918,197.5686035 852.255188,197.5686035 
			852.255188,195.9187012 852.255188,151.0256958 844.190918,151.0256958 844.190918,147.7279968 852.255188,147.7279968 
			852.255188,146.0802002 852.255188,101.1852036 844.190918,101.1852036 844.190918,97.8863983 852.255188,97.8863983 
			852.255188,96.2353973 852.255188,51.3424988 844.190918,51.3424988 844.190918,48.0447998 852.255188,48.0447998 
			852.255188,46.3937988 852.255188,1.4998 		"/>
		<g>
			<g>
				<g>
					<rect x="702.8768921" y="96.2362976" class="st1" width="3" height="6.5967002"/>
					<rect x="841.0430298" y="96.2362976" class="st1" width="3" height="6.5967002"/>
				</g>
				<g>
					<path class="st1" d="M852.1074219,97.7362976H694.8143921V51.4911995h157.2930298V97.7362976z M697.8143921,94.7362976
						h151.2930298V54.4911995H697.8143921V94.7362976z"/>
					<g>
						<g>
							<g>
								<rect x="776.085022" y="58.455101" class="st1" width="3.2988" height="3"/>
								<rect x="783.2938843" y="58.455101" class="st1" width="3.2988999" height="3"/>
								<rect x="790.5010376" y="58.455101" class="st1" width="3.2988" height="3"/>
								<rect x="797.7089844" y="58.455101" class="st1" width="3.2978001" height="3"/>
								<rect x="804.9169922" y="58.455101" class="st1" width="3.2978001" height="3"/>
								<rect x="812.1260376" y="58.455101" class="st1" width="3.2988" height="3"/>
								<rect x="819.3320313" y="58.455101" class="st1" width="3.2988" height="3"/>
								<rect x="826.5410156" y="58.455101" class="st1" width="3.2988" height="3"/>
								<rect x="833.7479858" y="58.455101" class="st1" width="3.2979" height="3"/>
								<rect x="840.9559937" y="58.455101" class="st1" width="3.2988999" height="3"/>
							</g>
							<g>
								<rect x="776.085022" y="65.7856979" class="st1" width="3.2988" height="3"/>
								<rect x="783.2938843" y="65.7856979" class="st1" width="3.2988999" height="3"/>
								<rect x="790.5010376" y="65.7856979" class="st1" width="3.2988" height="3"/>
								<rect x="797.7089844" y="65.7856979" class="st1" width="3.2978001" height="3"/>
								<rect x="804.9169922" y="65.7856979" class="st1" width="3.2978001" height="3"/>
								<rect x="812.1260376" y="65.7856979" class="st1" width="3.2988" height="3"/>
								<rect x="819.3320313" y="65.7856979" class="st1" width="3.2988" height="3"/>
								<rect x="826.5410156" y="65.7856979" class="st1" width="3.2988" height="3"/>
								<rect x="833.7479858" y="65.7856979" class="st1" width="3.2979" height="3"/>
								<rect x="840.9559937" y="65.7856979" class="st1" width="3.2988999" height="3"/>
							</g>
							<g>
								<rect x="776.085022" y="73.1147995" class="st1" width="3.2988" height="3"/>
								<rect x="783.2938843" y="73.1147995" class="st1" width="3.2988999" height="3"/>
								<rect x="790.5010376" y="73.1147995" class="st1" width="3.2988" height="3"/>
								<rect x="797.7089844" y="73.1147995" class="st1" width="3.2978001" height="3"/>
								<rect x="804.9169922" y="73.1147995" class="st1" width="3.2978001" height="3"/>
								<rect x="812.1260376" y="73.1147995" class="st1" width="3.2988" height="3"/>
								<rect x="819.3320313" y="73.1147995" class="st1" width="3.2988" height="3"/>
								<rect x="826.5410156" y="73.1147995" class="st1" width="3.2988" height="3"/>
								<rect x="833.7479858" y="73.1147995" class="st1" width="3.2979" height="3"/>
								<rect x="840.9559937" y="73.1147995" class="st1" width="3.2988999" height="3"/>
							</g>
							<g>
								<rect x="776.085022" y="80.4433975" class="st1" width="3.2988" height="3"/>
								<rect x="783.2938843" y="80.4433975" class="st1" width="3.2988999" height="3"/>
								<rect x="790.5010376" y="80.4433975" class="st1" width="3.2988" height="3"/>
								<rect x="797.7089844" y="80.4433975" class="st1" width="3.2978001" height="3"/>
								<rect x="804.9169922" y="80.4433975" class="st1" width="3.2978001" height="3"/>
								<rect x="812.1260376" y="80.4433975" class="st1" width="3.2988" height="3"/>
								<rect x="819.3320313" y="80.4433975" class="st1" width="3.2988" height="3"/>
								<rect x="826.5410156" y="80.4433975" class="st1" width="3.2988" height="3"/>
								<rect x="833.7479858" y="80.4433975" class="st1" width="3.2979" height="3"/>
								<rect x="840.9559937" y="80.4433975" class="st1" width="3.2988999" height="3"/>
							</g>
							<g>
								<rect x="776.085022" y="87.7724991" class="st1" width="3.2988" height="3"/>
								<rect x="783.2938843" y="87.7724991" class="st1" width="3.2988999" height="3"/>
								<rect x="790.5010376" y="87.7724991" class="st1" width="3.2988" height="3"/>
								<rect x="797.7089844" y="87.7724991" class="st1" width="3.2978001" height="3"/>
								<rect x="804.9169922" y="87.7724991" class="st1" width="3.2978001" height="3"/>
								<rect x="812.1260376" y="87.7724991" class="st1" width="3.2988" height="3"/>
								<rect x="819.3320313" y="87.7724991" class="st1" width="3.2988" height="3"/>
								<rect x="826.5410156" y="87.7724991" class="st1" width="3.2988" height="3"/>
								<rect x="833.7479858" y="87.7724991" class="st1" width="3.2979" height="3"/>
								<rect x="840.9559937" y="87.7724991" class="st1" width="3.2988999" height="3"/>
							</g>
						</g>
						<g>
							<g>
								<g>
									<rect x="716.9100952" y="87.2593002" class="st1" width="3.2988999" height="3"/>
									<rect x="723.6914063" y="87.2593002" class="st1" width="3.2978001" height="3"/>
									<rect x="730.4716797" y="87.2593002" class="st1" width="3.2978001" height="3"/>
								</g>
								<g>
									<rect x="755.2451172" y="87.7724991" class="st1" width="3.2988" height="3"/>
									<rect x="761.8428345" y="87.7724991" class="st1" width="3.2978001" height="3"/>
								</g>
							</g>
							<path class="st1" d="M766.640625,69.1509018h-51.2305298V58.455101h51.2305298V69.1509018z M718.4100952,66.1509018
								h45.2305298V61.455101h-45.2305298V66.1509018z"/>
							<path class="st1" d="M766.640625,83.5537033h-51.2305298V72.8599014h51.2305298V83.5537033z M718.4100952,80.5537033
								h45.2305298v-4.6938019h-45.2305298V80.5537033z"/>
						</g>
						<g>
							<rect x="702.8173828" y="66.1660004" class="st1" width="3" height="23.8617992"/>
							<rect x="702.6660156" y="59.2022018" class="st1" width="3.2988" height="3"/>
						</g>
					</g>
				</g>
			</g>
			<g>
				<g>
					<rect x="702.8768921" y="46.3950005" class="st1" width="3" height="6.5962"/>
					<rect x="841.0438843" y="46.3950005" class="st1" width="3" height="6.5962"/>
				</g>
				<g>
					<path class="st1" d="M852.1063843,47.8950005H694.8143921V1.6499h157.2919922V47.8950005z M697.8143921,44.8950005h151.2919922
						V4.6499H697.8143921V44.8950005z"/>
					<g>
						<g>
							<g>
								<rect x="776.085022" y="8.6138" class="st1" width="3.2988" height="3"/>
								<rect x="783.2938843" y="8.6138" class="st1" width="3.2988999" height="3"/>
								<rect x="790.5010376" y="8.6138" class="st1" width="3.2988" height="3"/>
								<rect x="797.7089844" y="8.6138" class="st1" width="3.2978001" height="3"/>
								<rect x="804.9180298" y="8.6138" class="st1" width="3.2978001" height="3"/>
								<rect x="812.1240234" y="8.6138" class="st1" width="3.2988" height="3"/>
								<rect x="819.3330078" y="8.6138" class="st1" width="3.2988" height="3"/>
								<rect x="826.5400391" y="8.6138" class="st1" width="3.2988999" height="3"/>
								<rect x="833.7490234" y="8.6138" class="st1" width="3.2979" height="3"/>
								<rect x="840.9551392" y="8.6138" class="st1" width="3.2988" height="3"/>
							</g>
							<g>
								<rect x="776.085022" y="15.9439001" class="st1" width="3.2988" height="3"/>
								<rect x="783.2938843" y="15.9439001" class="st1" width="3.2988999" height="3"/>
								<rect x="790.5010376" y="15.9439001" class="st1" width="3.2988" height="3"/>
								<rect x="797.7089844" y="15.9439001" class="st1" width="3.2978001" height="3"/>
								<rect x="804.9180298" y="15.9439001" class="st1" width="3.2978001" height="3"/>
								<rect x="812.1240234" y="15.9439001" class="st1" width="3.2988" height="3"/>
								<rect x="819.3330078" y="15.9439001" class="st1" width="3.2988" height="3"/>
								<rect x="826.5400391" y="15.9439001" class="st1" width="3.2988999" height="3"/>
								<rect x="833.7490234" y="15.9439001" class="st1" width="3.2979" height="3"/>
								<rect x="840.9551392" y="15.9439001" class="st1" width="3.2988" height="3"/>
							</g>
							<g>
								<rect x="776.085022" y="23.2724991" class="st1" width="3.2988" height="3"/>
								<rect x="783.2938843" y="23.2724991" class="st1" width="3.2988999" height="3"/>
								<rect x="790.5010376" y="23.2724991" class="st1" width="3.2988" height="3"/>
								<rect x="797.7089844" y="23.2724991" class="st1" width="3.2978001" height="3"/>
								<rect x="804.9180298" y="23.2724991" class="st1" width="3.2978001" height="3"/>
								<rect x="812.1240234" y="23.2724991" class="st1" width="3.2988" height="3"/>
								<rect x="819.3330078" y="23.2724991" class="st1" width="3.2988" height="3"/>
								<rect x="826.5400391" y="23.2724991" class="st1" width="3.2988999" height="3"/>
								<rect x="833.7490234" y="23.2724991" class="st1" width="3.2979" height="3"/>
								<rect x="840.9551392" y="23.2724991" class="st1" width="3.2988" height="3"/>
							</g>
							<g>
								<rect x="776.085022" y="30.6016006" class="st1" width="3.2988" height="3"/>
								<rect x="783.2938843" y="30.6016006" class="st1" width="3.2988999" height="3"/>
								<rect x="790.5010376" y="30.6016006" class="st1" width="3.2988" height="3"/>
								<rect x="797.7089844" y="30.6016006" class="st1" width="3.2978001" height="3"/>
								<rect x="804.9180298" y="30.6016006" class="st1" width="3.2978001" height="3"/>
								<rect x="812.1240234" y="30.6016006" class="st1" width="3.2988" height="3"/>
								<rect x="819.3330078" y="30.6016006" class="st1" width="3.2988" height="3"/>
								<rect x="826.5400391" y="30.6016006" class="st1" width="3.2988999" height="3"/>
								<rect x="833.7490234" y="30.6016006" class="st1" width="3.2979" height="3"/>
								<rect x="840.9551392" y="30.6016006" class="st1" width="3.2988" height="3"/>
							</g>
							<g>
								<rect x="776.085022" y="37.9306984" class="st1" width="3.2988" height="3"/>
								<rect x="783.2938843" y="37.9306984" class="st1" width="3.2988999" height="3"/>
								<rect x="790.5010376" y="37.9306984" class="st1" width="3.2988" height="3"/>
								<rect x="797.7089844" y="37.9306984" class="st1" width="3.2978001" height="3"/>
								<rect x="804.9180298" y="37.9306984" class="st1" width="3.2978001" height="3"/>
								<rect x="812.1240234" y="37.9306984" class="st1" width="3.2988" height="3"/>
								<rect x="819.3330078" y="37.9306984" class="st1" width="3.2988" height="3"/>
								<rect x="826.5400391" y="37.9306984" class="st1" width="3.2988999" height="3"/>
								<rect x="833.7490234" y="37.9306984" class="st1" width="3.2979" height="3"/>
								<rect x="840.9551392" y="37.9306984" class="st1" width="3.2988" height="3"/>
							</g>
						</g>
						<g>
							<g>
								<g>
									<rect x="716.9100952" y="37.4174995" class="st1" width="3.2988999" height="3"/>
									<rect x="723.6914063" y="37.4174995" class="st1" width="3.2978001" height="3"/>
									<rect x="730.4716797" y="37.4174995" class="st1" width="3.2978001" height="3"/>
								</g>
								<g>
									<rect x="755.2451172" y="37.9306984" class="st1" width="3.2988" height="3"/>
									<rect x="761.8428345" y="37.9306984" class="st1" width="3.2978001" height="3"/>
								</g>
							</g>
							<path class="st1" d="M766.640625,19.3106003h-51.2305298V8.6138h51.2305298V19.3106003z M718.4100952,16.3106003h45.2305298
								V11.6138h-45.2305298V16.3106003z"/>
							<path class="st1" d="M766.640625,33.7118988h-51.2305298V23.0170994h51.2305298V33.7118988z M718.4100952,30.7119007
								h45.2305298v-4.6948013h-45.2305298V30.7119007z"/>
						</g>
						<g>
							<rect x="702.8173828" y="16.3232002" class="st1" width="3" height="23.8619003"/>
							<rect x="702.6660156" y="9.3593998" class="st1" width="3.2988" height="3"/>
						</g>
					</g>
				</g>
			</g>
			<g>
				<g>
					<rect x="702.8768921" y="146.0800934" class="st1" width="3" height="6.5956998"/>
					<rect x="841.0430298" y="146.0800934" class="st1" width="3" height="6.5956998"/>
				</g>
				<g>
					<path class="st1" d="M852.1074219,147.5800934H694.8143921v-46.2470932h157.2930298V147.5800934z M697.8143921,144.5800934
						h151.2930298v-40.2470932H697.8143921V144.5800934z"/>
					<g>
						<g>
							<g>
								<rect x="776.085022" y="108.2968979" class="st1" width="3.2988" height="3"/>
								<rect x="783.2938843" y="108.2968979" class="st1" width="3.2988999" height="3"/>
								<rect x="790.5010376" y="108.2968979" class="st1" width="3.2988" height="3"/>
								<rect x="797.7089844" y="108.2968979" class="st1" width="3.2978001" height="3"/>
								<rect x="804.9169922" y="108.2968979" class="st1" width="3.2978001" height="3"/>
								<rect x="812.1260376" y="108.2968979" class="st1" width="3.2988" height="3"/>
								<rect x="819.3320313" y="108.2968979" class="st1" width="3.2988" height="3"/>
								<rect x="826.5410156" y="108.2968979" class="st1" width="3.2988" height="3"/>
								<rect x="833.7479858" y="108.2968979" class="st1" width="3.2979" height="3"/>
								<rect x="840.9559937" y="108.2968979" class="st1" width="3.2988999" height="3"/>
							</g>
							<g>
								<rect x="776.085022" y="115.6274033" class="st1" width="3.2988" height="3"/>
								<rect x="783.2938843" y="115.6274033" class="st1" width="3.2988999" height="3"/>
								<rect x="790.5010376" y="115.6274033" class="st1" width="3.2988" height="3"/>
								<rect x="797.7089844" y="115.6274033" class="st1" width="3.2978001" height="3"/>
								<rect x="804.9169922" y="115.6274033" class="st1" width="3.2978001" height="3"/>
								<rect x="812.1260376" y="115.6274033" class="st1" width="3.2988" height="3"/>
								<rect x="819.3320313" y="115.6274033" class="st1" width="3.2988" height="3"/>
								<rect x="826.5410156" y="115.6274033" class="st1" width="3.2988" height="3"/>
								<rect x="833.7479858" y="115.6274033" class="st1" width="3.2979" height="3"/>
								<rect x="840.9559937" y="115.6274033" class="st1" width="3.2988999" height="3"/>
							</g>
							<g>
								<rect x="776.085022" y="122.9574966" class="st1" width="3.2988" height="3"/>
								<rect x="783.2938843" y="122.9574966" class="st1" width="3.2988999" height="3"/>
								<rect x="790.5010376" y="122.9574966" class="st1" width="3.2988" height="3"/>
								<rect x="797.7089844" y="122.9574966" class="st1" width="3.2978001" height="3"/>
								<rect x="804.9169922" y="122.9574966" class="st1" width="3.2978001" height="3"/>
								<rect x="812.1260376" y="122.9574966" class="st1" width="3.2988" height="3"/>
								<rect x="819.3320313" y="122.9574966" class="st1" width="3.2988" height="3"/>
								<rect x="826.5410156" y="122.9574966" class="st1" width="3.2988" height="3"/>
								<rect x="833.7479858" y="122.9574966" class="st1" width="3.2979" height="3"/>
								<rect x="840.9559937" y="122.9574966" class="st1" width="3.2988999" height="3"/>
							</g>
							<g>
								<rect x="776.085022" y="130.2837067" class="st1" width="3.2988" height="3"/>
								<rect x="783.2938843" y="130.2837067" class="st1" width="3.2988999" height="3"/>
								<rect x="790.5010376" y="130.2837067" class="st1" width="3.2988" height="3"/>
								<rect x="797.7089844" y="130.2837067" class="st1" width="3.2978001" height="3"/>
								<rect x="804.9169922" y="130.2837067" class="st1" width="3.2978001" height="3"/>
								<rect x="812.1260376" y="130.2837067" class="st1" width="3.2988" height="3"/>
								<rect x="819.3320313" y="130.2837067" class="st1" width="3.2988" height="3"/>
								<rect x="826.5410156" y="130.2837067" class="st1" width="3.2988" height="3"/>
								<rect x="833.7479858" y="130.2837067" class="st1" width="3.2979" height="3"/>
								<rect x="840.9559937" y="130.2837067" class="st1" width="3.2988999" height="3"/>
							</g>
							<g>
								<rect x="776.085022" y="137.6161957" class="st1" width="3.2988" height="3"/>
								<rect x="783.2938843" y="137.6161957" class="st1" width="3.2988999" height="3"/>
								<rect x="790.5010376" y="137.6161957" class="st1" width="3.2988" height="3"/>
								<rect x="797.7089844" y="137.6161957" class="st1" width="3.2978001" height="3"/>
								<rect x="804.9169922" y="137.6161957" class="st1" width="3.2978001" height="3"/>
								<rect x="812.1260376" y="137.6161957" class="st1" width="3.2988" height="3"/>
								<rect x="819.3320313" y="137.6161957" class="st1" width="3.2988" height="3"/>
								<rect x="826.5410156" y="137.6161957" class="st1" width="3.2988" height="3"/>
								<rect x="833.7479858" y="137.6161957" class="st1" width="3.2979" height="3"/>
								<rect x="840.9559937" y="137.6161957" class="st1" width="3.2988999" height="3"/>
							</g>
						</g>
						<g>
							<g>
								<g>
									<rect x="716.9100952" y="137.1020966" class="st1" width="3.2988999" height="3"/>
									<rect x="723.6914063" y="137.1020966" class="st1" width="3.2978001" height="3"/>
									<rect x="730.4716797" y="137.1020966" class="st1" width="3.2978001" height="3"/>
								</g>
								<g>
									<rect x="755.2451172" y="137.6161957" class="st1" width="3.2988" height="3"/>
									<rect x="761.8428345" y="137.6161957" class="st1" width="3.2978001" height="3"/>
								</g>
							</g>
							<path class="st1" d="M766.640625,118.9936981h-51.2305298v-10.6968002h51.2305298V118.9936981z M718.4100952,115.9936981
								h45.2305298v-4.6968002h-45.2305298V115.9936981z"/>
							<path class="st1" d="M766.640625,133.3930969h-51.2305298v-10.6923981h51.2305298V133.3930969z M718.4100952,130.3930969
								h45.2305298v-4.6923981h-45.2305298V130.3930969z"/>
						</g>
						<g>
							<rect x="702.8173828" y="116.0064011" class="st1" width="3" height="23.8617992"/>
							<rect x="702.6660156" y="109.044899" class="st1" width="3.2988" height="3"/>
						</g>
					</g>
				</g>
			</g>
			<g>
				<g>
					<rect x="702.8768921" y="195.9228973" class="st1" width="3" height="6.5956998"/>
					<rect x="841.0430298" y="195.9228973" class="st1" width="3" height="6.5956998"/>
				</g>
				<g>
					<path class="st1" d="M852.1074219,197.4228973H694.8143921v-46.2471008h157.2930298V197.4228973z M697.8143921,194.4228973
						h151.2930298v-40.2471008H697.8143921V194.4228973z"/>
					<g>
						<g>
							<g>
								<rect x="776.085022" y="158.1396942" class="st1" width="3.2988" height="3"/>
								<rect x="783.2938843" y="158.1396942" class="st1" width="3.2988999" height="3"/>
								<rect x="790.5010376" y="158.1396942" class="st1" width="3.2988" height="3"/>
								<rect x="797.7089844" y="158.1396942" class="st1" width="3.2978001" height="3"/>
								<rect x="804.9169922" y="158.1396942" class="st1" width="3.2978001" height="3"/>
								<rect x="812.1260376" y="158.1396942" class="st1" width="3.2988" height="3"/>
								<rect x="819.3320313" y="158.1396942" class="st1" width="3.2988" height="3"/>
								<rect x="826.5410156" y="158.1396942" class="st1" width="3.2988" height="3"/>
								<rect x="833.7479858" y="158.1396942" class="st1" width="3.2979" height="3"/>
								<rect x="840.9559937" y="158.1396942" class="st1" width="3.2988999" height="3"/>
							</g>
							<g>
								<rect x="776.085022" y="165.469696" class="st1" width="3.2988" height="3"/>
								<rect x="783.2938843" y="165.469696" class="st1" width="3.2988999" height="3"/>
								<rect x="790.5010376" y="165.469696" class="st1" width="3.2988" height="3"/>
								<rect x="797.7089844" y="165.469696" class="st1" width="3.2978001" height="3"/>
								<rect x="804.9169922" y="165.469696" class="st1" width="3.2978001" height="3"/>
								<rect x="812.1260376" y="165.469696" class="st1" width="3.2988" height="3"/>
								<rect x="819.3320313" y="165.469696" class="st1" width="3.2988" height="3"/>
								<rect x="826.5410156" y="165.469696" class="st1" width="3.2988" height="3"/>
								<rect x="833.7479858" y="165.469696" class="st1" width="3.2979" height="3"/>
								<rect x="840.9559937" y="165.469696" class="st1" width="3.2988999" height="3"/>
							</g>
							<g>
								<rect x="776.085022" y="172.800293" class="st1" width="3.2988" height="3"/>
								<rect x="783.2938843" y="172.800293" class="st1" width="3.2988999" height="3"/>
								<rect x="790.5010376" y="172.800293" class="st1" width="3.2988" height="3"/>
								<rect x="797.7089844" y="172.800293" class="st1" width="3.2978001" height="3"/>
								<rect x="804.9169922" y="172.800293" class="st1" width="3.2978001" height="3"/>
								<rect x="812.1260376" y="172.800293" class="st1" width="3.2988" height="3"/>
								<rect x="819.3320313" y="172.800293" class="st1" width="3.2988" height="3"/>
								<rect x="826.5410156" y="172.800293" class="st1" width="3.2988" height="3"/>
								<rect x="833.7479858" y="172.800293" class="st1" width="3.2979" height="3"/>
								<rect x="840.9559937" y="172.800293" class="st1" width="3.2988999" height="3"/>
							</g>
							<g>
								<rect x="776.085022" y="180.1264954" class="st1" width="3.2988" height="3"/>
								<rect x="783.2938843" y="180.1264954" class="st1" width="3.2988999" height="3"/>
								<rect x="790.5010376" y="180.1264954" class="st1" width="3.2988" height="3"/>
								<rect x="797.7089844" y="180.1264954" class="st1" width="3.2978001" height="3"/>
								<rect x="804.9169922" y="180.1264954" class="st1" width="3.2978001" height="3"/>
								<rect x="812.1260376" y="180.1264954" class="st1" width="3.2988" height="3"/>
								<rect x="819.3320313" y="180.1264954" class="st1" width="3.2988" height="3"/>
								<rect x="826.5410156" y="180.1264954" class="st1" width="3.2988" height="3"/>
								<rect x="833.7479858" y="180.1264954" class="st1" width="3.2979" height="3"/>
								<rect x="840.9559937" y="180.1264954" class="st1" width="3.2988999" height="3"/>
							</g>
							<g>
								<rect x="776.085022" y="187.4589996" class="st1" width="3.2988" height="3"/>
								<rect x="783.2938843" y="187.4589996" class="st1" width="3.2988999" height="3"/>
								<rect x="790.5010376" y="187.4589996" class="st1" width="3.2988" height="3"/>
								<rect x="797.7089844" y="187.4589996" class="st1" width="3.2978001" height="3"/>
								<rect x="804.9169922" y="187.4589996" class="st1" width="3.2978001" height="3"/>
								<rect x="812.1260376" y="187.4589996" class="st1" width="3.2988" height="3"/>
								<rect x="819.3320313" y="187.4589996" class="st1" width="3.2988" height="3"/>
								<rect x="826.5410156" y="187.4589996" class="st1" width="3.2988" height="3"/>
								<rect x="833.7479858" y="187.4589996" class="st1" width="3.2979" height="3"/>
								<rect x="840.9559937" y="187.4589996" class="st1" width="3.2988999" height="3"/>
							</g>
						</g>
						<g>
							<g>
								<g>
									<rect x="716.9100952" y="186.9447937" class="st1" width="3.2988999" height="3"/>
									<rect x="723.6914063" y="186.9447937" class="st1" width="3.2978001" height="3"/>
									<rect x="730.4716797" y="186.9447937" class="st1" width="3.2978001" height="3"/>
								</g>
								<g>
									<rect x="755.2451172" y="187.4589996" class="st1" width="3.2988" height="3"/>
									<rect x="761.8428345" y="187.4589996" class="st1" width="3.2978001" height="3"/>
								</g>
							</g>
							<path class="st1" d="M766.640625,168.8363953h-51.2305298v-10.696701h51.2305298V168.8363953z M718.4100952,165.8363953
								h45.2305298v-4.696701h-45.2305298V165.8363953z"/>
							<path class="st1" d="M766.640625,183.2357941h-51.2305298v-10.6927948h51.2305298V183.2357941z M718.4100952,180.2357941
								h45.2305298v-4.6927948h-45.2305298V180.2357941z"/>
						</g>
						<g>
							<rect x="702.8173828" y="165.8491058" class="st1" width="3" height="23.8617992"/>
							<rect x="702.6660156" y="158.887207" class="st1" width="3.2988" height="3"/>
						</g>
					</g>
				</g>
			</g>
			<g>
				<g>
					<rect x="702.8768921" y="245.7655945" class="st1" width="3" height="6.5977001"/>
					<rect x="841.0430298" y="245.7655945" class="st1" width="3" height="6.5977001"/>
				</g>
				<g>
					<path class="st1" d="M852.1074219,247.2655945H694.8143921v-46.246994h157.2930298V247.2655945z M697.8143921,244.2655945
						h151.2930298v-40.246994H697.8143921V244.2655945z"/>
					<g>
						<g>
							<g>
								<rect x="776.085022" y="207.9824066" class="st1" width="3.2988" height="3"/>
								<rect x="783.2938843" y="207.9824066" class="st1" width="3.2988999" height="3"/>
								<rect x="790.5010376" y="207.9824066" class="st1" width="3.2988" height="3"/>
								<rect x="797.7089844" y="207.9824066" class="st1" width="3.2978001" height="3"/>
								<rect x="804.9169922" y="207.9824066" class="st1" width="3.2978001" height="3"/>
								<rect x="812.1260376" y="207.9824066" class="st1" width="3.2988" height="3"/>
								<rect x="819.3320313" y="207.9824066" class="st1" width="3.2988" height="3"/>
								<rect x="826.5410156" y="207.9824066" class="st1" width="3.2988" height="3"/>
								<rect x="833.7479858" y="207.9824066" class="st1" width="3.2979" height="3"/>
								<rect x="840.9559937" y="207.9824066" class="st1" width="3.2988999" height="3"/>
							</g>
							<g>
								<rect x="776.085022" y="215.3125" class="st1" width="3.2988" height="3"/>
								<rect x="783.2938843" y="215.3125" class="st1" width="3.2988999" height="3"/>
								<rect x="790.5010376" y="215.3125" class="st1" width="3.2988" height="3"/>
								<rect x="797.7089844" y="215.3125" class="st1" width="3.2978001" height="3"/>
								<rect x="804.9169922" y="215.3125" class="st1" width="3.2978001" height="3"/>
								<rect x="812.1260376" y="215.3125" class="st1" width="3.2988" height="3"/>
								<rect x="819.3320313" y="215.3125" class="st1" width="3.2988" height="3"/>
								<rect x="826.5410156" y="215.3125" class="st1" width="3.2988" height="3"/>
								<rect x="833.7479858" y="215.3125" class="st1" width="3.2979" height="3"/>
								<rect x="840.9559937" y="215.3125" class="st1" width="3.2988999" height="3"/>
							</g>
							<g>
								<rect x="776.085022" y="222.6430969" class="st1" width="3.2988" height="3"/>
								<rect x="783.2938843" y="222.6430969" class="st1" width="3.2988999" height="3"/>
								<rect x="790.5010376" y="222.6430969" class="st1" width="3.2988" height="3"/>
								<rect x="797.7089844" y="222.6430969" class="st1" width="3.2978001" height="3"/>
								<rect x="804.9169922" y="222.6430969" class="st1" width="3.2978001" height="3"/>
								<rect x="812.1260376" y="222.6430969" class="st1" width="3.2988" height="3"/>
								<rect x="819.3320313" y="222.6430969" class="st1" width="3.2988" height="3"/>
								<rect x="826.5410156" y="222.6430969" class="st1" width="3.2988" height="3"/>
								<rect x="833.7479858" y="222.6430969" class="st1" width="3.2979" height="3"/>
								<rect x="840.9559937" y="222.6430969" class="st1" width="3.2988999" height="3"/>
							</g>
							<g>
								<rect x="776.085022" y="229.9712067" class="st1" width="3.2988" height="3"/>
								<rect x="783.2938843" y="229.9712067" class="st1" width="3.2988999" height="3"/>
								<rect x="790.5010376" y="229.9712067" class="st1" width="3.2988" height="3"/>
								<rect x="797.7089844" y="229.9712067" class="st1" width="3.2978001" height="3"/>
								<rect x="804.9169922" y="229.9712067" class="st1" width="3.2978001" height="3"/>
								<rect x="812.1260376" y="229.9712067" class="st1" width="3.2988" height="3"/>
								<rect x="819.3320313" y="229.9712067" class="st1" width="3.2988" height="3"/>
								<rect x="826.5410156" y="229.9712067" class="st1" width="3.2988" height="3"/>
								<rect x="833.7479858" y="229.9712067" class="st1" width="3.2979" height="3"/>
								<rect x="840.9559937" y="229.9712067" class="st1" width="3.2988999" height="3"/>
							</g>
							<g>
								<rect x="776.085022" y="237.3018036" class="st1" width="3.2988" height="3"/>
								<rect x="783.2938843" y="237.3018036" class="st1" width="3.2988999" height="3"/>
								<rect x="790.5010376" y="237.3018036" class="st1" width="3.2988" height="3"/>
								<rect x="797.7089844" y="237.3018036" class="st1" width="3.2978001" height="3"/>
								<rect x="804.9169922" y="237.3018036" class="st1" width="3.2978001" height="3"/>
								<rect x="812.1260376" y="237.3018036" class="st1" width="3.2988" height="3"/>
								<rect x="819.3320313" y="237.3018036" class="st1" width="3.2988" height="3"/>
								<rect x="826.5410156" y="237.3018036" class="st1" width="3.2988" height="3"/>
								<rect x="833.7479858" y="237.3018036" class="st1" width="3.2979" height="3"/>
								<rect x="840.9559937" y="237.3018036" class="st1" width="3.2988999" height="3"/>
							</g>
						</g>
						<g>
							<g>
								<g>
									<rect x="716.9100952" y="236.7895966" class="st1" width="3.2988999" height="3"/>
									<rect x="723.6914063" y="236.7895966" class="st1" width="3.2978001" height="3"/>
									<rect x="730.4716797" y="236.7895966" class="st1" width="3.2978001" height="3"/>
								</g>
								<g>
									<rect x="755.2451172" y="237.3018036" class="st1" width="3.2988" height="3"/>
									<rect x="761.8428345" y="237.3018036" class="st1" width="3.2978001" height="3"/>
								</g>
							</g>
							<path class="st1" d="M766.640625,218.6791992h-51.2305298v-10.6967926h51.2305298V218.6791992z M718.4100952,215.6791992
								h45.2305298v-4.6967926h-45.2305298V215.6791992z"/>
							<path class="st1" d="M766.640625,233.0805969h-51.2305298v-10.6949005h51.2305298V233.0805969z M718.4100952,230.0805969
								h45.2305298v-4.6949005h-45.2305298V230.0805969z"/>
						</g>
						<g>
							<rect x="702.8173828" y="215.6918945" class="st1" width="3" height="23.8617992"/>
							<rect x="702.6660156" y="208.7299957" class="st1" width="3.2988" height="3"/>
						</g>
					</g>
				</g>
			</g>
			<rect x="702.8768921" y="250.8632965" class="st1" width="141.1661072" height="3"/>
		</g>
	</g>
	<g>
		<g>
			<path class="st0" d="M396.8101807,206.3103943h58.6429138c0,0-4.3503723,22.9407043,27.0434875,38.7077026
				c0,0-54.0581055-16.6575928-112.7335815,0C369.7630005,245.0180969,396.8101807,233.6726074,396.8101807,206.3103943z"/>
			<g>
				<path class="st0" d="M579.6167603,191.3226013c0,8.2749023-6.7088623,14.987793-14.987793,14.987793H287.6304932
					c-8.2789001,0-14.987793-6.7128906-14.987793-14.987793V16.4857006c0-8.2769003,6.7088928-14.9859009,14.987793-14.9859009
					h276.9984741c8.2789307,0,14.987793,6.7090006,14.987793,14.9859009V191.3226013z"/>
				<path class="st1" d="M564.6289063,207.8105927H287.6304016c-9.0913086,0-16.4878235-7.3964996-16.4878235-16.487793V16.4857998
					C271.1425781,7.3955002,278.539093,0,287.6304016,0h276.9985046c9.0917969,0,16.4882813,7.3955002,16.4882813,16.4857998
					v174.8370056C581.1171875,200.414093,573.7207031,207.8105927,564.6289063,207.8105927z M287.6304016,3
					c-7.4371033,0-13.4878235,6.0497999-13.4878235,13.4857998v174.8370056c0,7.4369965,6.0507202,13.487793,13.4878235,13.487793
					h276.9985046c7.4375,0,13.4882813-6.0507965,13.4882813-13.487793V16.4857998
					C578.1171875,9.0497999,572.0664063,3,564.6289063,3H287.6304016z"/>
			</g>
			<rect x="272.6427002" y="21.8055" class="st0" width="306.9740906" height="152.6253967"/>
			<path class="st1" d="M579.6171875,175.9311981H272.6425781c-0.8285828,0-1.5-0.671402-1.5-1.5V21.8057003
				c0-0.8285999,0.6714172-1.5,1.5-1.5h306.9746094c0.828125,0,1.5,0.6714001,1.5,1.5v152.6255035
				C581.1171875,175.2597961,580.4453125,175.9311981,579.6171875,175.9311981z M274.1425781,172.9311981h303.9746094V23.3057003
				H274.1425781V172.9311981z"/>
			<g>
				<g>
					<g>
						<path class="st0" d="M349.2709961,254.0108948c16.6575928-10.0175934,44.867981-16.6076965,76.8625793-16.6076965
							c31.9909058,0,60.1973267,6.5863037,76.8549194,16.6038055L349.2709961,254.0108948z"/>
						<path class="st1" d="M349.2724915,255.5106964c-0.5093079,0-1.0054016-0.2586975-1.2872009-0.7269897
							c-0.4266968-0.7100067-0.1972046-1.6313019,0.5126953-2.058609
							c17.5151978-10.5332031,46.5381165-16.8217926,77.6358032-16.8217926
							c31.0967102,0,60.1162109,6.2870941,77.6279297,16.8179016c0.7099915,0.4272003,0.9384766,1.348587,0.5116577,2.0585938
							c-0.4266663,0.7104034-1.3495789,0.9385071-2.0585938,0.5126953
							c-17.0643921-10.2621918-45.5057983-16.3891907-76.0809937-16.3891907
							c-30.5762024,0-59.0209961,6.1279907-76.0899048,16.3930969
							C349.8021851,255.4418945,349.5355835,255.5106964,349.2724915,255.5106964z"/>
					</g>
					<path class="st1" d="M502.9882813,255.5106964H349.2709961c-0.8286133,0-1.5-0.6712952-1.5-1.5
						c0-0.828598,0.6713867-1.5,1.5-1.5h153.7172852c0.8280945,0,1.5,0.671402,1.5,1.5
						C504.4882813,254.8394012,503.8163757,255.5106964,502.9882813,255.5106964z"/>
				</g>
				<g>
					<path class="st1" d="M369.7621765,246.5186005c-0.6610718,0-1.2660828-0.440506-1.4467773-1.108902
						c-0.2163086-0.7998047,0.2563782-1.6235962,1.0561829-1.8394012
						c10.0283203-2.7124023,25.9384155-15.2261047,25.9384155-37.2597046c0-0.8286896,0.6713867-1.5,1.5-1.5
						c0.8287048,0,1.5,0.6713104,1.5,1.5c0,23.7070007-17.2695007,37.2119141-28.1552124,40.1552124
						C370.0233765,246.5014954,369.8920898,246.5186005,369.7621765,246.5186005z"/>
					<path class="st1" d="M482.4971008,246.5186005c-0.1299133,0-0.2618103-0.0171051-0.3926086-0.0527954
						c-10.8837891-2.9443054-28.1513977-16.449707-28.1513977-40.1552124c0-0.8286896,0.6719055-1.5,1.5-1.5s1.5,0.6713104,1.5,1.5
						c0,22.0327148,15.907196,34.546814,25.9346008,37.2597046c0.7998047,0.2163086,1.2723999,1.0395966,1.0565796,1.8394012
						C483.7637024,246.0780945,483.1581726,246.5186005,482.4971008,246.5186005z"/>
				</g>
			</g>
			<rect x="417.2865906" y="187.9956055" class="st1" width="17.6859989" height="3"/>
		</g>
		<g>
			<path class="st2" d="M381.6070862,123.6405029h-10.9562073v22.8127899h-20.5612793v-22.8127899h-41.273407v-15.1585999
				l34.819519-57.3319016h27.0151672v55.6810989h10.9562073V123.6405029z M350.0895996,106.8311005V91.3722
				c0-6.1531982,0.6000061-15.308403,0.9002991-21.3117981h-0.6003113
				c-2.4013062,5.2528992-5.1026917,10.6562958-7.8043823,16.0588989l-12.6070251,20.7117996H350.0895996z"/>
			<path class="st2" d="M392.060791,98.4268036c0-32.4182053,13.6575012-49.0778046,34.0690002-49.0778046
				c20.4114075,0,34.0689087,16.6595993,34.0689087,49.0778046c0,32.4180908-13.6575012,49.8274994-34.0689087,49.8274994
				C405.7182922,148.254303,392.060791,130.8448944,392.060791,98.4268036z M439.3371887,98.4268036
				c0-26.114502-5.7033997-31.9680023-13.2073975-31.9680023c-7.354187,0-13.2073975,5.8535004-13.2073975,31.9680023
				c0,25.9645996,5.8532104,32.7184906,13.2073975,32.7184906
				C433.6337891,131.1452942,439.3371887,124.3914032,439.3371887,98.4268036z"/>
			<path class="st2" d="M543.4432983,123.6405029h-10.9562988v22.8127899h-20.561615v-22.8127899h-41.2730103v-15.1585999
				l34.819519-57.3319016h27.0151062v55.6810989h10.9562988V123.6405029z M511.9253845,106.8311005V91.3722
				c0-6.1531982,0.6007996-15.308403,0.9007263-21.3117981h-0.6003418
				c-2.4012756,5.2528992-5.1029968,10.6562958-7.8043823,16.0588989l-12.6069946,20.7117996H511.9253845z"/>
		</g>
	</g>
	<g>
		<g>
			<rect x="155.9447937" y="126.2554016" class="st1" width="5" height="3"/>
			<path class="st1" d="M189.5048981,129.2554016h-8.9253082v-3h8.9253082V129.2554016z M175.2245941,129.2554016h-8.9248047v-3
				h8.9248047V129.2554016z"/>
			<rect x="194.8593903" y="126.2554016" class="st1" width="5" height="3"/>
		</g>
		<g>
			<rect x="228.7274933" y="126.2554016" class="st1" width="5" height="3"/>
			<path class="st1" d="M262.2875977,129.2554016h-8.9253082v-3h8.9253082V129.2554016z M248.0072937,129.2554016h-8.9248047v-3
				h8.9248047V129.2554016z"/>
			<rect x="267.6425781" y="126.2554016" class="st1" width="5" height="3"/>
		</g>
		<g>
			
				<rect x="211.2025299" y="111.8060455" transform="matrix(0.707101 -0.7071126 0.7071126 0.707101 -27.4045277 189.3511353)" class="st2" width="7.3191967" height="31.898653"/>
			
				<rect x="211.2025299" y="111.8060455" transform="matrix(0.7071068 0.7071068 -0.7071068 0.7071068 153.2683563 -114.5117798)" class="st2" width="7.3191967" height="31.898653"/>
		</g>
	</g>
	<g>
		<g>
			<rect x="579.6171875" y="126.2554016" class="st1" width="5" height="3"/>
			<path class="st1" d="M613.1766968,129.2554016h-8.9248047v-3h8.9248047V129.2554016z M598.8964844,129.2554016h-8.9248047v-3
				h8.9248047V129.2554016z"/>
			<rect x="618.5321655" y="126.2554016" class="st1" width="5" height="3"/>
		</g>
		<g>
			<rect x="652.3994141" y="126.2554016" class="st1" width="5" height="3"/>
			<path class="st1" d="M685.960022,129.2554016h-8.9249268v-3h8.9249268V129.2554016z M671.6796875,129.2554016h-8.9248047v-3
				h8.9248047V129.2554016z"/>
			<rect x="691.3154297" y="126.2554016" class="st1" width="5" height="3"/>
		</g>
		<g>
			
				<rect x="634.8747559" y="111.8060303" transform="matrix(0.7071 -0.7071136 0.7071136 0.7071 96.6891632 488.9358521)" class="st2" width="7.3191562" height="31.8986835"/>
			
				<rect x="634.8747559" y="111.8060303" transform="matrix(0.7071 0.7071136 -0.7071136 0.7071 277.3642883 -414.0967407)" class="st2" width="7.3191562" height="31.8986835"/>
		</g>
	</g>
	<g>
		<g>
			<g>
				<path class="st0" d="M-19.810957-91.3880615c0,0.6614914,0.5363007,1.1987991,1.1977406,1.1987991h9.8364983
					c0.6603804,0,1.197741-0.5373077,1.197741-1.1987991l0,0c0-0.6609116-0.5373607-1.1966858-1.197741-1.1966858h-9.8364983
					C-19.2746563-92.5847473-19.810957-92.0489731-19.810957-91.3880615L-19.810957-91.3880615z"/>
				<path class="st0" d="M-18.5180511-114.5161133c0,2.6525345,2.1509247,4.8039398,4.8034105,4.8039398
					c2.6530676,0,4.8039398-2.1514053,4.8039398-4.8039398c0-2.6530685-2.1508722-4.802887-4.8039398-4.802887
					C-16.3671265-119.3190002-18.5180511-117.1691818-18.5180511-114.5161133z"/>
				<path class="st0" d="M-21.8107929-105.2055969c0,4.577919,3.7101002,8.2875443,8.2870207,8.2875443
					c4.5773773,0,8.2875319-3.7096252,8.2875319-8.2875443c0-4.5779648-3.7101545-8.2875977-8.2875319-8.2875977
					C-18.1006927-113.4931946-21.8107929-109.7835617-21.8107929-105.2055969z"/>
				<polygon class="st0" points="-16.645895,-82.1504669 -10.7445593,-82.1504669 -9.1185598,-90.1892624 -18.2718506,-90.1892624 
									"/>
			</g>
			<g>
				<path class="st1" d="M-10.7993803-110.5411758c-0.1794195-0.2017136-0.1618376-0.5099258,0.040884-0.6883392l0,0
					c0.9133062-0.8135376,1.4883718-1.9926376,1.4889021-3.3119659l0,0
					c-0.0041313-2.4399719-1.9838438-4.4206848-4.4264059-4.4253464l0,0
					c-2.4440966,0.0046616-4.421216,1.9853745-4.4258757,4.4253464l0,0c0,0.7344131,0.1784134,1.425827,0.4933624,2.0319824l0,0
					c0.1246529,0.239418,0.0315533,0.5337067-0.2083969,0.6583099l0,0
					c-0.2394753,0.1236038-0.5337601,0.0305099-0.6583691-0.2089157l0,0
					c-0.3842602-0.7405548-0.602499-1.5871964-0.6014385-2.4813766l0,0c0-2.9809341,2.4161892-5.4012527,5.4007177-5.4012527l0,0
					c2.9829941,0,5.4017878,2.4203186,5.4027843,5.4012527l0,0c0,1.6068344-0.7038593,3.0528412-1.8172922,4.0411377l0,0
					c-0.0930996,0.0827713-0.2083883,0.1236038-0.32372,0.1236038l0,0
					C-10.5692263-110.3767395-10.7026796-110.4326096-10.7993803-110.5411758L-10.7993803-110.5411758z"/>
				<path class="st1" d="M-14.1842155-96.9237747c0-0.2699203,0.2182474-0.4886856,0.4887447-0.4886856l0,0
					c4.3131294-0.0072556,7.8039865-3.496048,7.8122478-7.8091812l0,0c0-2.8077011-1.4827061-5.2688522-3.7049642-6.6486588l0,0
					c-0.2296152-0.1411896-0.3004284-0.4421997-0.1582375-0.6718216l0,0
					c0.1422443-0.2290955,0.4426727-0.2999496,0.6728258-0.1577072l0,0
					c2.4984322,1.5483704,4.1662779,4.3203812,4.1662779,7.4781876l0,0c0,4.8535614-3.9366541,8.785553-8.7881498,8.786087l0,0
					C-13.9659681-96.4355545-14.1842155-96.6543198-14.1842155-96.9237747L-14.1842155-96.9237747z"/>
				<path class="st1" d="M-17.0063782-97.0773468c-3.2120876-1.3078918-5.4772854-4.4631042-5.4777718-8.1442947l0,0
					c0.0004864-3.741188,2.3354816-6.9372253,5.6298141-8.2063522l0,0c0.2513371-0.0967026,0.5337067,0.0273743,0.6309357,0.2797699
					l0,0c0.0962334,0.2518616-0.0279083,0.5337067-0.2802944,0.6304092l0,0
					c-2.9276638,1.1294785-5.0056114,3.9702835-5.004076,7.2961731l0,0
					c-0.0015354,3.2720947,2.0143471,6.0761414,4.8696079,7.2403107l0,0c0.25033,0.1018372,0.3703308,0.3868027,0.2679214,0.6355438
					l0,0c-0.0770626,0.1897964-0.2596073,0.3041306-0.4520035,0.3041306l0,0
					C-16.8837814-97.0416565-16.9458466-97.0530472-17.0063782-97.0773468L-17.0063782-97.0773468z"/>
				<path class="st1" d="M-14.1842155-92.5847473v-4.3384933c0-0.2704544,0.2187767-0.4887466,0.4887447-0.4887466l0,0
					c0.2694483,0,0.488163,0.2182922,0.488163,0.4887466l0,0v4.3384933c0,0.2689209-0.2187147,0.4871597-0.488163,0.4871597l0,0
					C-13.9654388-92.0975876-14.1842155-92.3158264-14.1842155-92.5847473L-14.1842155-92.5847473z"/>
			</g>
			<g>
				<g>
					<path class="st1" d="M-10.8417988-81.6725769c-0.2642584-0.0527954-0.434411-0.3097992-0.3811359-0.575119l0,0
						l1.6254797-8.0387955c0.0537519-0.2652664,0.311285-0.4354172,0.5750761-0.3816681l0,0
						c0.2637281,0.0527496,0.4359369,0.3108063,0.382185,0.5755997l0,0l-1.6259565,8.0387955
						c-0.0470791,0.2316895-0.2498007,0.3915176-0.4778795,0.3915176l0,0
						C-10.7766085-81.6622467-10.8091679-81.6653748-10.8417988-81.6725769L-10.8417988-81.6725769z"/>
					<path class="st1" d="M-17.1247902-82.0542908l-1.6254272-8.0387497
						c-0.0543346-0.2647858,0.1173534-0.521843,0.3816662-0.575119l0,0
						c0.2642574-0.0537491,0.5212612,0.1168747,0.5750656,0.3816681l0,0l1.6254272,8.0387955
						c0.0532742,0.2647858-0.1178837,0.5223236-0.3816662,0.575119l0,0
						c-0.0330982,0.0072021-0.0656681,0.0103302-0.0967007,0.0103302l0,0
						C-16.8745136-81.6622467-17.0782413-81.8220749-17.1247902-82.0542908L-17.1247902-82.0542908z"/>
				</g>
				<path class="st1" d="M-18.6132164-89.7021103c-0.9318943-0.0009995-1.6859474-0.7550125-1.6859474-1.6859512l0,0h-0.0004864
					c0.0004864-0.9308929,0.7545395-1.6854324,1.6864338-1.6854324l0,0h9.8364983
					c0.9303579,0.0010605,1.6848974,0.7545395,1.6854272,1.6854324l0,0
					c-0.0005298,0.9309387-0.7550693,1.6849518-1.6854272,1.6859512l0,0H-18.6132164L-18.6132164-89.7021103z
					 M-18.6132164-90.6784821h9.8364983c0.3904552-0.0005341,0.708519-0.3185959,0.7089958-0.7095795l0,0
					c-0.0004768-0.3909378-0.3180637-0.7089996-0.7089958-0.7095261l0,0h-9.8364983
					c-0.3914623,0.0005264-0.7089958,0.3175278-0.7100544,0.7095261l0,0l0,0
					C-19.3222122-90.9965515-19.0046787-90.6790161-18.6132164-90.6784821L-18.6132164-90.6784821z"/>
				<path class="st1" d="M-16.645895-81.6622467c-0.2705078,0-0.4892216-0.2187653-0.4892216-0.4882202l0,0
					c0-0.2699738,0.2187138-0.4876862,0.4892216-0.4876862l0,0h5.9013357c0.2694387,0,0.4876766,0.2177124,0.4876766,0.4876862l0,0
					c0,0.269455-0.2182379,0.4882202-0.4876766,0.4882202l0,0H-16.645895L-16.645895-81.6622467z"/>
			</g>
		</g>
	</g>
</g>
</svg>
