<svg xmlns="http://www.w3.org/2000/svg" width="31" height="31" viewBox="0 0 31 31">
  <g id="help" transform="translate(0.5 0.5)">
    <g id="Group_103" data-name="Group 103">
      <g id="Group_102" data-name="Group 102">
        <path id="Path_235" data-name="Path 235" d="M223.219,343.22a1.573,1.573,0,0,0,0,3.145,1.573,1.573,0,0,0,0-3.145Z" transform="translate(-208.679 -323.109)" fill="#183247" stroke="#f9f9f9" stroke-width="1"/>
        <path id="Path_236" data-name="Path 236" d="M188.046,140c-2.757,0-4.024,1.634-4.024,2.737a1.171,1.171,0,0,0,1.225,1.164c1.1,0,.654-1.573,2.737-1.573,1.021,0,1.838.449,1.838,1.389,0,1.1-1.144,1.736-1.818,2.308a3.739,3.739,0,0,0-1.368,3.1c0,1.062.286,1.368,1.123,1.368,1,0,1.2-.449,1.2-.837a2.565,2.565,0,0,1,1.144-2.553c.551-.429,2.287-1.818,2.287-3.738S190.66,140,188.046,140Z" transform="translate(-173.239 -131.799)" fill="#183247" stroke="#f9f9f9" stroke-width="1"/>
        <path id="Path_237" data-name="Path 237" d="M15,0A14.992,14.992,0,0,0,0,15V28.828A1.172,1.172,0,0,0,1.172,30H15A15,15,0,0,0,15,0Zm0,27.656H2.344V15A12.656,12.656,0,1,1,15,27.656Z" fill="#183247" stroke="#f9f9f9" stroke-width="1"/>
      </g>
    </g>
  </g>
</svg>
