<svg id="instagram" xmlns="http://www.w3.org/2000/svg" width="23.52" height="23.52" viewBox="0 0 23.52 23.52">
  <path id="Path_136" data-name="Path 136" d="M16.513,0H7.007A7.015,7.015,0,0,0,0,7.007v9.506A7.015,7.015,0,0,0,7.007,23.52h9.506a7.015,7.015,0,0,0,7.007-7.007V7.007A7.015,7.015,0,0,0,16.513,0Zm4.641,16.513a4.641,4.641,0,0,1-4.641,4.641H7.007a4.641,4.641,0,0,1-4.641-4.641V7.007A4.641,4.641,0,0,1,7.007,2.366h9.506a4.641,4.641,0,0,1,4.641,4.641v9.506Z" fill="#fff"/>
  <path id="Path_137" data-name="Path 137" d="M139.083,133a6.083,6.083,0,1,0,6.083,6.083A6.09,6.09,0,0,0,139.083,133Zm0,9.8a3.717,3.717,0,1,1,3.717-3.717A3.717,3.717,0,0,1,139.083,142.8Z" transform="translate(-127.323 -127.323)" fill="#fff"/>
  <circle id="Ellipse_43" data-name="Ellipse 43" cx="1.458" cy="1.458" r="1.458" transform="translate(16.397 4.265)" fill="#fff"/>
</svg>
