<svg xmlns="http://www.w3.org/2000/svg" width="36" height="41.386" viewBox="0 0 36 41.386" style="&#10;   ">
  <g id="Eyadatak_-_Logo_White_Icon" data-name="Eyadatak - Logo White Icon" transform="translate(-9.993 -9.927)">
    <path id="Path_158" data-name="Path 158" d="M73.345,70.127a8.08,8.08,0,0,0-6.078-2.437,8.49,8.49,0,0,0-8.035,4.777A7.79,7.79,0,0,0,59.8,81.3a18.587,18.587,0,0,0,1.826,1.849C57.84,86,55.272,89.6,55.34,94.644c-.034.017-.063.04-.1.057-.457-.462-.942-.9-1.37-1.387a12.1,12.1,0,0,1-2.642-6.043,31.391,31.391,0,0,1-.388-7.276,13.62,13.62,0,0,1,2.836-7.921,13.792,13.792,0,0,1,5.484-4.058,22.56,22.56,0,0,1,6.848-1.706,36.8,36.8,0,0,1,3.8-.223,10.7,10.7,0,0,1,7.128,2.448,11.876,11.876,0,0,1,3.276,4.811c.3.776.514,1.586.765,2.385q-3.047-2.251-6.106-4.5c-.451-.331-.93-.622-1.392-.93h.011c-.029-.029-.057-.057-.086-.091l.006.006A.449.449,0,0,1,73.345,70.127Z" transform="translate(-38.465 -52.955)" fill="#fff"/>
    <path id="Path_159" data-name="Path 159" d="M236.613,386.278a8.827,8.827,0,0,1-2.323,3.03,17.27,17.27,0,0,1-8.109,3.7,32.46,32.46,0,0,1-7.83.559,16.054,16.054,0,0,1-1.735-.16.651.651,0,0,1-.377-.354,6.108,6.108,0,0,1-.16-4.742,8.532,8.532,0,0,1,3.612-4.3,23.884,23.884,0,0,1,6.745-2.928c.622-.183,1.255-.325,1.883-.485.011.04.017.091.04.108,1.6,1.084,3.207,2.157,4.811,3.241Q234.9,385.114,236.613,386.278Z" transform="translate(-193.949 -349.52)" fill="#fff"/>
    <path id="Path_160" data-name="Path 160" d="M285.28,159.22c-1.147-.776-2.288-1.552-3.435-2.328-1.6-1.084-3.213-2.157-4.811-3.241-.029-.017-.029-.074-.04-.108.987-.217,1.974-.451,2.967-.651a2.27,2.27,0,0,0,2.026-2.311c.131-2.351-1.227-2.945-3.144-2.716-1.381.166-2.751.434-4.12.673a10.747,10.747,0,0,1-5.022-.063,3.094,3.094,0,0,1-1.5-5.187,3.834,3.834,0,0,1,3.784-1c1.061.245,2.083.656,3.139.947a5.4,5.4,0,0,0,1.507.217,1.354,1.354,0,0,0,1.33-1.107,3.245,3.245,0,0,0-.331-2.54c.468.308.942.6,1.392.93q3.056,2.243,6.106,4.5c.211.982.468,1.957.622,2.95a42.052,42.052,0,0,1,.405,7.716A7.05,7.05,0,0,1,285.28,159.22Z" transform="translate(-242.616 -122.462)" fill="#fff"/>
    <path id="Path_161" data-name="Path 161" d="M34.618,290.871c-.748-.422-1.472-.9-2.243-1.261a11.4,11.4,0,0,0-4.354-1.284c-1.216-.057-2.437.051-3.652.017a19.372,19.372,0,0,1-6.414-1.164A11.123,11.123,0,0,1,11.135,280a22.379,22.379,0,0,1-1.067-5.262c-.017-.217-.034-.434-.068-.645s.08-.228.234-.217c.245.011.485.017.73.029.24-.063.24.086.268.262.257,1.489.451,2.99.8,4.451a10.472,10.472,0,0,0,2.773,5.05,11.425,11.425,0,0,0,5.661,2.962,27.5,27.5,0,0,0,7.858.428,28.437,28.437,0,0,0,6.911-1.233,16.291,16.291,0,0,0,6.414-3.584,9.45,9.45,0,0,0,3.133-7.128,56.585,56.585,0,0,0-.348-7.088c-.04-.308-.1-.611-.143-.919-.029-.171-.034-.337.223-.314l.656-.308c.063-.023.126-.046.245-.086.108.77.268,1.518.308,2.277.114,2.214.223,4.428.263,6.648a10.141,10.141,0,0,1-3.5,7.858,9.386,9.386,0,0,1-1.512,1.221,6.341,6.341,0,0,0-2.146,2.169c-.616.993-1.136,2.049-1.695,3.076-.057.1-.108.217-.16.32-.211-.063-.422-.12-.633-.183a.1.1,0,0,1,0-.057c.017-.034.029-.063.046-.1.6-1.216,1.2-2.431,1.8-3.635a28.7,28.7,0,0,1-7.567,2.106,16.815,16.815,0,0,1,4.309,2.18C34.835,290.488,34.726,290.677,34.618,290.871Z" transform="translate(0 -241.837)" fill="#fff"/>
    <path id="Path_162" data-name="Path 162" d="M13.005,54.62c-.245-.011-.485-.017-.73-.029-.034-.93-.08-1.866-.1-2.8-.091-4.063.6-7.915,3.127-11.248a15.556,15.556,0,0,1,6.283-4.788l.639-.28a4.093,4.093,0,0,1,.074-.816,1.176,1.176,0,0,1,1.5-.759,1.2,1.2,0,0,1,.748,1.507,1.147,1.147,0,0,1-1.5.736.963.963,0,0,0-.8.068,14.809,14.809,0,0,0-7.2,5.986,15.407,15.407,0,0,0-2.026,6.266A32.581,32.581,0,0,0,13.005,54.62Z" transform="translate(-2.047 -22.553)" fill="#fff"/>
    <path id="Path_163" data-name="Path 163" d="M387.335,24.66l-.656.308a24.687,24.687,0,0,0-1.689-5.981,11.3,11.3,0,0,0-9.536-7.242.735.735,0,0,0-.508.2,1.274,1.274,0,0,1-1.421.263,1.174,1.174,0,0,1-.645-1.318,1.269,1.269,0,0,1,.993-.953,1.174,1.174,0,0,1,1.261.748c.108.32.314.354.571.382a11.379,11.379,0,0,1,7.453,3.687,14.217,14.217,0,0,1,3.019,5.364C386.644,21.607,386.958,23.148,387.335,24.66Z" transform="translate(-342.159)" fill="#fff"/>
    <path id="Path_164" data-name="Path 164" d="M442.57,676.4c.211.063.422.12.633.183.154.16.3.325.462.485a1.568,1.568,0,0,1,.034,2.06,1.6,1.6,0,0,1-2.032.422,1.662,1.662,0,0,1-.839-1.8,1.527,1.527,0,0,0,.011-.28c.108-.188.217-.382.325-.571C441.634,676.731,442.1,676.566,442.57,676.4Z" transform="translate(-406.223 -628.44)" fill="#fff"/>
    <path id="Path_165" data-name="Path 165" d="M447.1,138.3c.029.029.057.057.086.091C447.157,138.357,447.129,138.329,447.1,138.3Z" transform="translate(-412.162 -121.047)" fill="#fff"/>
    <path id="Path_166" data-name="Path 166" d="M446.1,136.9a.806.806,0,0,1,.063.086A.806.806,0,0,1,446.1,136.9Z" transform="translate(-411.22 -119.727)" fill="#fff"/>
    <path id="Path_167" data-name="Path 167" d="M471.8,673.8c.017-.034.029-.063.046-.1C471.834,673.729,471.817,673.763,471.8,673.8Z" transform="translate(-435.453 -625.893)" fill="#fff"/>
  </g>
</svg>