<svg xmlns="http://www.w3.org/2000/svg" width="10" height="10" viewBox="0 0 10 10">
  <g id="plus-icon-dark" transform="translate(0 -0.001)">
    <g id="Group_146" data-name="Group 146" transform="translate(0 0.001)">
      <path id="Path_241" data-name="Path 241" d="M9.457,4.3H5.7V.544A.674.674,0,0,0,5,0a.674.674,0,0,0-.7.543V4.3H.543A.674.674,0,0,0,0,5a.674.674,0,0,0,.543.7H4.3v3.76A.674.674,0,0,0,5,10a.674.674,0,0,0,.7-.543V5.7h3.76A.674.674,0,0,0,10,5,.674.674,0,0,0,9.457,4.3Z" transform="translate(0 -0.001)" fill="#183247"/>
    </g>
  </g>
</svg>
