<svg id="tools" xmlns="http://www.w3.org/2000/svg" width="26.885" height="26" viewBox="0 0 26.885 26">
  <g id="Group_33" data-name="Group 33" transform="translate(0 0)">
    <path id="Path_140" data-name="Path 140" d="M26.829,26.877a4.693,4.693,0,0,0-6.336-2.951l-4.6-4.6L22,13.258l1.447-.041a.511.511,0,0,0,.424-.251l2.071-3.483a.511.511,0,0,0-.077-.624l-1.79-1.79a.511.511,0,0,0-.624-.077L19.97,9.064a.511.511,0,0,0-.251.424l-.041,1.442-6.1,6.086L9.4,12.833a4.679,4.679,0,0,0-7.206-4.69.511.511,0,0,0,.036.869l2.322,1.294a1.419,1.419,0,0,1,.2,1.9c-.414.736-1.207,1.115-1.723.828L.874,11.867a.511.511,0,0,0-.757.481,4.679,4.679,0,0,0,6.51,4.009l3.8,3.8L8.786,21.809l-.373-.368a1.069,1.069,0,0,0-1.478,0l-.511.511a1.023,1.023,0,0,0-.056,1.406L.317,29.4a1.023,1.023,0,0,0-.032,1.446l.032.032L2.045,32.6a1.023,1.023,0,0,0,1.446.032l.032-.032,6.055-6.05a1.023,1.023,0,0,0,1.406-.056l.511-.511a1.023,1.023,0,0,0,.032-1.446l-.032-.032-.373-.373,1.637-1.672,4.961,4.961a4.679,4.679,0,0,0,7.958,4.05.511.511,0,0,0-.23-.828l-2.879-.772a.946.946,0,0,1-.6-.588,1.877,1.877,0,0,1-.051-1.207c.215-.8.895-1.376,1.468-1.222l2.849.767a.48.48,0,0,0,.138,0,.511.511,0,0,0,.46-.747ZM20.533,11.5a.511.511,0,0,0,.148-.348l.041-1.365,2.9-1.723,1.227,1.227-1.688,2.895-1.391.051a.511.511,0,0,0-.348.148l-6.239,6.234-.88-.88ZM2.8,31.878,1.043,30.135l6.081-6.065.88.88.839.869Zm7.482-6.137-.675-.68L9.343,24.8,7.2,22.637l.511-.511,3.068,3.109Zm.1-2.332-.88-.88,1.647-1.647.88.88Zm13.256,2.46a1.79,1.79,0,0,0-.465-.061,2.506,2.506,0,0,0-2.255,2,2.9,2.9,0,0,0,.1,1.867,1.949,1.949,0,0,0,1.284,1.176l1.9.511a3.657,3.657,0,0,1-5.431-3.979.511.511,0,0,0-.138-.476L7.1,15.375a.511.511,0,0,0-.6-.072,3.66,3.66,0,0,1-5.15-1.984l1.166.649a1.805,1.805,0,0,0,.89.23,2.67,2.67,0,0,0,2.225-1.452,2.393,2.393,0,0,0-.6-3.294L3.539,8.609a3.657,3.657,0,0,1,4.792,4.27.511.511,0,0,0,.138.476L20.022,24.9a.511.511,0,0,0,.6.092,3.661,3.661,0,0,1,4.864,1.376Z" transform="translate(-0.001 -6.92)" fill="#fff"/>
  </g>
</svg>
