<svg id="wallet" xmlns="http://www.w3.org/2000/svg" width="26.025" height="30" viewBox="0 0 26.025 30">
  <g id="Group_28" data-name="Group 28" transform="translate(0 0)">
    <g id="Group_27" data-name="Group 27" transform="translate(0 0)">
      <path id="Path_128" data-name="Path 128" d="M47.011,5.167,37.853.207a1.932,1.932,0,0,0-2.534.76l-5.358,9.955H23.445a1.468,1.468,0,0,0-1.484,1.484V28.516A1.468,1.468,0,0,0,23.445,30H44.26a1.468,1.468,0,0,0,1.484-1.484V24.751h.615a.572.572,0,0,0,.579-.579V19.864a.572.572,0,0,0-.579-.579h-.615V15.049A1.511,1.511,0,0,0,44.586,13.6l3.186-5.9A1.9,1.9,0,0,0,47.011,5.167ZM40.5,2.959l-5.72,10.607H33.147L39.265,2.307ZM36.369,1.511a.712.712,0,0,1,.941-.29l.9.507L31.844,13.565H29.853ZM23.083,12.37a.349.349,0,0,1,.326-.29h5.9l-.8,1.448h-5.1a1,1,0,0,0-.326.036ZM44.55,28.516a.324.324,0,0,1-.326.326H23.409a.324.324,0,0,1-.326-.326V15.049a.324.324,0,0,1,.326-.326H44.188a.324.324,0,0,1,.326.326v4.235H42.305a1.738,1.738,0,0,0-1.738,1.738v1.991a1.738,1.738,0,0,0,1.738,1.738H44.55Zm1.158-8.073h.036v3.149H42.305a.572.572,0,0,1-.579-.579V21.022a.572.572,0,0,1,.579-.579ZM46.722,7.122l-3.475,6.444H36.079l5.43-10.027,4.923,2.679A.633.633,0,0,1,46.722,7.122Z" transform="translate(-21.961 0)" fill="#fff"/>
    </g>
  </g>
  <g id="Group_30" data-name="Group 30" transform="translate(19.616 6.254)">
    <g id="Group_29" data-name="Group 29" transform="translate(0)">
      <path id="Path_129" data-name="Path 129" d="M241.647,69.433l-.29-.145a1.585,1.585,0,0,0-2.1.615l-.362.688a1.525,1.525,0,0,0-.109,1.195,1.458,1.458,0,0,0,.76.905l.29.145a1.648,1.648,0,0,0,.724.181,1.628,1.628,0,0,0,1.376-.8l.362-.688A1.622,1.622,0,0,0,241.647,69.433Zm-.4,1.557-.362.688a.409.409,0,0,1-.543.145l-.29-.181a.532.532,0,0,1-.181-.217.273.273,0,0,1,.036-.29l.362-.688a.48.48,0,0,1,.362-.217.326.326,0,0,1,.181.036l.29.145A.563.563,0,0,1,241.248,70.989Z" transform="translate(-238.71 -69.108)" fill="#fff"/>
    </g>
  </g>
</svg>
