<svg xmlns="http://www.w3.org/2000/svg" width="26.364" height="20" viewBox="0 0 26.364 20">
  <g id="youtube" transform="translate(0 -61.793)">
    <path id="Path_138" data-name="Path 138" d="M26.091,66.111a6.679,6.679,0,0,0-1.045-2.818,3.49,3.49,0,0,0-2.636-1.182c-3.682-.273-9.227-.318-9.227-.318h0s-5.545.045-9.227.318a3.673,3.673,0,0,0-2.636,1.182A6.073,6.073,0,0,0,.273,66.111,45.472,45.472,0,0,0,0,70.748v2.136a44.012,44.012,0,0,0,.273,4.591,6.679,6.679,0,0,0,1.045,2.818A4.367,4.367,0,0,0,4.227,81.52c2.091.227,8.955.273,8.955.273s5.545,0,9.227-.318a3.673,3.673,0,0,0,2.636-1.182,6.679,6.679,0,0,0,1.045-2.818,45.181,45.181,0,0,0,.273-4.591V70.748a45.472,45.472,0,0,0-.273-4.636" fill="#fff"/>
    <path id="Path_139" data-name="Path 139" d="M194.207,166.841V176.7l8.636-4.818Z" transform="translate(-184.207 -99.639)" fill="#284255"/>
  </g>
</svg>
