<svg xmlns="http://www.w3.org/2000/svg" width="24.76" height="20" viewBox="0 0 24.76 20">
  <path id="twitter-icon" d="M17.281,49.172a5.34,5.34,0,0,0-5.13,5.391v.7c-5.13-.913-7.652-2.3-10.435-5.217-1.652,3.217.174,5.913,2.174,7.391a4.726,4.726,0,0,1-3.348-.956c-.087-.043-.174,0-.13.087a8.08,8.08,0,0,0,5.217,5.217c-1.783,0-2.957.261-4.217-.522-.087-.043-.174,0-.13.087C2.237,64,4.15,64.824,6.933,64.824A10.782,10.782,0,0,1,.15,67a.143.143,0,0,0-.087.261c1.3,1.087,4.522,1.913,9.043,1.913,7.435,0,13.478-6.609,13.478-14.783v-.435a3.8,3.8,0,0,0,2.174-2.522.093.093,0,0,0-.087-.087l-2.478.87a.083.083,0,0,1-.043-.13,6.652,6.652,0,0,0,2.174-2.87.152.152,0,0,0-.087-.043c-1.174.478-2.3.956-3.174,1.217a.515.515,0,0,1-.435-.043,9.148,9.148,0,0,0-3.348-1.174" transform="translate(0.001 -49.172)" fill="#fff"/>
</svg>
